<svg width="1112" height="797" viewBox="0 0 1112 797" fill="none" xmlns="http://www.w3.org/2000/svg">
<path d="M686.757 669.853C671.709 677.655 632.464 683.342 590.823 687.177C575.401 688.61 559.626 689.774 544.685 690.727C507.807 693.016 475.662 693.836 464.681 693.378C464.161 693.343 463.564 693.278 462.965 693.175L462.928 693.178C461.356 692.929 459.504 692.404 457.378 691.678C432.725 683.09 374.15 644.69 357.064 630.571C341.24 617.502 304.893 574.305 304.893 574.305C303.175 562.898 328.486 557.791 354.917 583.92C356.596 585.567 379.379 597.293 394.539 605.051C394.845 605.175 395.153 605.337 395.461 605.498C396.69 606.107 397.846 606.722 398.924 607.269C403.732 609.713 407.152 611.412 407.885 611.8C407.254 611.294 404.906 609.587 401.503 607.146C400.72 606.577 399.898 605.974 399.036 605.337C398.762 605.136 398.485 604.898 398.174 604.7C387.052 596.561 369.58 583.691 362.976 578.055C353.289 569.807 321.495 532.513 327.616 528.867C343.966 519.228 364.468 540.816 384.965 558.447C392.086 564.561 426.096 581.423 438.099 589.495C430.449 582.756 414.528 568.4 409.543 561.679C402.904 552.681 391.574 529.656 395.953 527.917C403.959 524.756 411.824 530.444 431.263 551.669C447.677 569.574 485.733 578.399 495.52 583.571C515.166 593.908 552.393 582.607 612.669 577.279C638.443 574.959 661.036 580.008 673.788 602.524C684.121 620.769 685.542 644.818 692.822 661.109C694.247 664.291 691.918 667.205 686.757 669.853Z" fill="#FFCFBF"/>
<path d="M445.042 567.418C445.042 567.418 426.694 536.511 442.992 540.493C459.291 544.475 492.493 588.691 527.891 587.313L508.34 601.246L445.042 567.418Z" fill="#FFCFBF"/>
<path d="M786.239 798.735L623.076 811.155C615.546 794.829 582.189 708.801 577.982 705.017L577.942 704.983C577.782 704.81 577.663 704.708 577.504 704.573C576.436 703.655 575.537 703.021 574.8 702.56C573.367 701.707 572.541 701.548 572.502 701.514C564.794 696.924 555.17 693.404 544.686 690.726L544.647 690.692C504.628 680.389 452.689 682.05 452.531 681.914C440.568 669.513 463.82 654.315 497.94 641.548L502.527 638.5C522.338 631.076 535.797 627.382 554.112 622.179C556.61 621.471 567.02 621.245 569.337 620.588C569.374 620.585 569.374 620.585 569.374 620.585C571.328 620.029 573.249 619.513 575.096 619.003C586.288 615.932 608.15 621.822 612.06 621.699C666.709 619.985 666.713 613.952 674.496 620.977L674.499 621.013C676.799 623.057 677.833 624.494 677.833 624.494C677.18 626.615 784.909 796.322 786.239 798.735Z" fill="#FFCFBF"/>
<path d="M614.557 699.252C581.686 709.034 522.712 706.406 488.705 699.597C479.824 697.82 470.511 697.327 462.572 692.967C455.436 689.047 449.655 683.11 444.001 677.253C427.147 659.795 410.387 642.248 393.722 624.611C389.1 619.719 384.619 611.329 389.95 607.22C391.868 605.741 394.45 605.548 396.869 605.413C412.137 604.561 428.758 604.081 441.154 613.035C449.367 618.967 454.555 628.316 462.584 634.494C472.256 641.936 485.831 643.969 497.258 639.687L614.557 699.252Z" fill="#FFCFBF"/>
<path d="M592.228 698.572C568.732 705.487 544.091 706.216 519.85 703.747C507.418 702.481 495.209 700.1 482.885 698.123C476.7 697.131 470.386 696.141 464.693 693.387C459.059 690.662 454.234 686.413 449.813 682.052C440.604 672.964 431.789 663.442 422.848 654.092C413.69 644.516 404.533 634.939 395.458 625.284C392.38 622.009 387.481 616.263 389.147 611.319C390.112 608.455 393.095 607.712 395.786 607.472C398.86 607.198 401.971 607.114 405.055 607.027C416.163 606.713 428.127 607.238 437.941 613.05C448.624 619.378 454.13 631.434 464.591 638.041C474.499 644.299 486.956 645.52 497.939 641.549C499.409 641.018 498.345 638.829 496.882 639.358C485.491 643.476 472.287 641.372 462.82 633.781C453.835 626.577 448.34 615.863 437.954 610.278C427.744 604.789 415.77 604.258 404.43 604.627C399.892 604.774 393.516 604.104 389.611 606.857C386.031 609.381 385.98 613.787 387.383 617.562C389.392 622.967 393.685 626.948 397.556 631.037C402.385 636.138 407.222 641.231 412.067 646.317C421.757 656.488 431.479 666.629 441.232 676.741C449.695 685.515 458.244 694.669 470.356 698.082C476.375 699.779 482.624 700.447 488.761 701.576C495.182 702.758 501.611 703.87 508.078 704.771C536.225 708.691 565.209 709.049 592.686 700.962C594.173 700.524 593.734 698.129 592.228 698.572Z" fill="#EF9F8A"/>
<path d="M654.249 649.746C653.219 632.344 633.575 626.208 619.502 622.891C602.522 618.887 584.833 617.786 567.482 619.59C557.789 620.598 548.2 622.523 538.862 625.309C537.437 625.734 538.219 627.91 539.644 627.485C555.54 622.742 572.161 620.615 588.741 621.139C597.019 621.401 605.277 622.347 613.405 623.94C621.323 625.491 629.528 627.398 636.84 630.895C644.438 634.529 651.416 641.026 651.943 649.922C652.032 651.407 654.337 651.232 654.249 649.746Z" fill="#EF9F8A"/>
<path d="M662.301 680.63C664.163 686.341 666.941 691.777 670.484 696.628C671.483 697.996 672.545 699.316 673.663 700.587C673.934 700.895 674.199 701.13 674.617 701.211C674.985 701.283 675.462 701.202 675.766 700.971C676.356 700.524 676.708 699.503 676.15 698.869C674.206 696.659 672.437 694.3 670.865 691.812C670.085 690.577 669.352 689.313 668.671 688.021C668.632 687.947 668.409 687.516 668.558 687.806C668.471 687.637 668.384 687.467 668.299 687.296C668.129 686.956 667.962 686.613 667.799 686.269C667.481 685.6 667.177 684.924 666.885 684.243C666.237 682.725 665.658 681.177 665.147 679.608C664.901 678.856 663.953 678.393 663.213 678.697C662.436 679.015 662.039 679.824 662.301 680.63Z" fill="#F18E7B"/>
<path d="M1010.57 806C1050.56 770.101 1072.93 716.505 1071.83 662.898C1071.52 647.716 1069.29 632.659 1065.17 618.045C1064.61 616.069 1067.64 615.05 1068.2 617.031C1083.02 669.542 1073.12 727.758 1043.08 773.162C1034.54 786.058 1024.45 797.812 1012.94 808.142C1011.43 809.502 1009.04 807.376 1010.57 806Z" fill="#4C99AF"/>
<path d="M1059.73 740.975C1063.76 740.99 1067.79 741.008 1071.8 740.637C1075.46 740.299 1081.12 740.007 1084.14 737.651C1085.89 737.231 1086.29 735.939 1085.34 733.774C1083.79 733.456 1082.27 733.549 1080.76 734.053C1078.53 734.676 1076.47 735.867 1074.41 736.907C1070.3 738.984 1066.21 741.104 1062.12 743.202C1060.3 744.13 1058.54 741.466 1060.37 740.529C1064.62 738.352 1087.24 723.258 1089.99 734.089C1092.7 744.783 1065.17 744.183 1059.93 744.164C1057.88 744.156 1057.67 740.967 1059.73 740.975Z" fill="#4C99AF"/>
<path d="M1066.28 718.104C1072.57 716.677 1078.83 715.072 1085 713.153C1089.52 711.745 1098.72 709.267 1100.59 704.203C1101.98 702.933 1101.3 702.142 1098.55 701.831C1097.78 701.79 1097.01 701.75 1096.24 701.709C1094.58 701.829 1092.94 702.477 1091.42 703.126C1088.52 704.371 1085.74 705.989 1083.09 707.705C1077.74 711.173 1073.02 715.401 1068.84 720.199C1067.48 721.748 1065.11 719.609 1066.46 718.057C1072.2 711.491 1078.98 705.943 1086.71 701.897C1091.29 699.503 1099.68 695.787 1103.78 701.236C1107.26 705.859 1097.38 711.578 1094.26 713.081C1085.91 717.109 1076.29 719.094 1067.3 721.134C1065.3 721.585 1064.28 718.559 1066.28 718.104Z" fill="#4C99AF"/>
<path d="M1072.73 688.344C1079.25 687.254 1085.6 685.423 1091.65 682.768C1094.61 681.47 1097.48 679.978 1100.25 678.315C1101.58 677.516 1102.89 676.682 1104.17 675.799C1104.79 675.383 1105.4 674.948 1106 674.494C1109.33 672.387 1109.48 670.776 1106.45 669.661C1104.34 668.164 1103.83 668.098 1101.52 668.439C1099.77 668.698 1098.04 669.159 1096.37 669.768C1093.33 670.882 1090.48 672.476 1087.87 674.399C1082.55 678.327 1078.36 683.525 1074.47 688.819C1073.25 690.474 1070.89 688.323 1072.1 686.677C1077.58 679.217 1083.82 672.07 1092.32 668.021C1096.71 665.932 1107.71 661.982 1111.01 667.611C1115.08 674.541 1103.79 680.075 1099.3 682.534C1091.06 687.047 1082.19 689.985 1072.93 691.534C1070.91 691.873 1070.72 688.68 1072.73 688.344Z" fill="#4C99AF"/>
<path d="M1073.79 656.411C1078.18 651.953 1083.46 648.829 1088.64 645.399C1093.99 641.85 1104.88 633.814 1101.79 626.24C1101.67 624.47 1100.72 623.784 1098.93 624.182C1097.77 624.185 1096.63 624.38 1095.51 624.767C1093.69 625.372 1091.94 626.454 1090.54 627.763C1087.67 630.463 1086.01 634.168 1084.74 637.831C1082.45 644.428 1081.33 651.265 1077.55 657.261C1076.47 658.985 1073.61 657.544 1074.71 655.8C1079.91 647.557 1079.93 637.179 1085.36 629.077C1088.86 623.86 1097.61 617.866 1103.94 622.277C1109.66 626.264 1102.76 637.066 1099.56 640.59C1092.86 647.96 1083.12 651.476 1076.16 658.554C1074.73 660.015 1072.35 657.883 1073.79 656.411Z" fill="#4C99AF"/>
<path d="M1066.16 619.916C1070.15 614.115 1072.41 607.589 1073.4 600.642C1074.36 593.92 1074.93 585.19 1071.12 579.156C1070.44 577.133 1069.32 576.857 1067.74 578.326C1066.11 578.344 1065.37 579.042 1065.52 580.421C1064.88 581.954 1065.16 584.756 1065.1 586.409C1064.98 589.622 1065.05 592.844 1065.28 596.051C1065.82 603.425 1067.32 610.64 1069.59 617.668C1070.23 619.627 1067.2 620.64 1066.56 618.682C1063.38 608.841 1061.7 598.575 1061.87 588.218C1061.94 583.797 1061.43 571.071 1069.29 573.446C1076.64 575.667 1077.35 587.811 1077.17 593.889C1076.88 603.615 1074.56 613.29 1069 621.377C1067.85 623.046 1064.99 621.61 1066.16 619.916Z" fill="#4C99AF"/>
<path d="M1070.15 655.663C1068.38 650.405 1065.65 645.705 1062.38 641.244C1060.92 639.252 1059.38 637.323 1057.81 635.414C1057.14 634.589 1055.88 632.335 1054.88 631.931C1051.6 632.379 1050.41 633.491 1051.32 635.266C1051.58 636 1051.87 636.718 1052.21 637.421C1053.45 640.148 1055.15 643.515 1057.5 645.485C1059.48 647.151 1062.13 647.571 1064.43 648.614C1068.58 650.488 1071.89 653.491 1074.51 657.163C1075.71 658.84 1073.03 660.584 1071.84 658.912C1068.81 654.666 1065.03 652.246 1060.21 650.41C1057.55 649.398 1055.5 648.271 1053.67 646.025C1050.67 642.336 1044.57 633.174 1049.14 628.63C1053.65 624.146 1058.41 631.109 1060.96 634.237C1066.02 640.458 1070.61 646.989 1073.19 654.649C1073.84 656.601 1070.81 657.612 1070.15 655.663Z" fill="#4C99AF"/>
<path d="M1069.25 691.846C1067.34 688.491 1065.44 685.092 1063.1 682.008C1061.59 680.011 1056.19 673.018 1053.18 673.755C1051.24 674.226 1055.68 683.053 1056.65 684.245C1059.47 687.685 1064.45 688.541 1068.56 689.698C1070.52 690.253 1069.89 693.385 1067.9 692.826C1062.62 691.337 1056.44 690.11 1053.32 685.127C1051.43 682.105 1047.71 674.961 1049.79 671.373C1051.93 667.677 1056.97 671.667 1059.27 673.448C1064.87 677.782 1068.48 684.046 1071.92 690.097C1072.93 691.878 1070.26 693.638 1069.25 691.846Z" fill="#4C99AF"/>
<path d="M1063.17 723.798C1057.86 719.812 1053.22 715.03 1049.55 709.491C1047.51 706.407 1042.71 700.441 1047.87 697.828C1052.82 695.32 1057.44 700.278 1060.01 703.883C1063.56 708.863 1065.53 714.686 1066.14 720.742C1066.34 722.792 1063.15 722.984 1062.95 720.943C1062.53 716.776 1061.43 712.73 1059.44 709.027C1058.61 707.465 1057.63 705.959 1056.54 704.564C1055.84 703.676 1055.08 702.751 1054.22 702.022C1052.54 700.614 1049.16 700.547 1049.73 703.575C1050.32 706.706 1054.28 710.762 1056.3 713.107C1058.99 716.225 1062.02 718.957 1065.31 721.428C1066.95 722.661 1064.8 725.026 1063.17 723.798Z" fill="#4C99AF"/>
<path d="M1054.53 744.036C1050.3 739.138 1046.45 733.88 1043.45 728.128C1042.08 725.5 1039.76 720.635 1043.14 718.431C1046.54 716.211 1050.27 720.224 1051.94 722.862C1055.09 727.858 1056.11 734.37 1057.24 740.052C1057.64 742.045 1054.62 743.078 1054.21 741.066C1053.52 737.615 1052.78 734.159 1051.78 730.78C1051.26 729.022 1050.7 727.248 1049.84 725.621C1048.96 723.954 1048.15 721.682 1046.12 722.927C1044.81 723.126 1044.53 723.71 1045.3 724.68C1045.76 725.697 1046.27 726.691 1046.83 727.663C1047.65 729.159 1048.54 730.618 1049.46 732.054C1051.63 735.434 1054.05 738.628 1056.67 741.666C1058 743.2 1055.88 745.592 1054.53 744.036Z" fill="#4C99AF"/>
<path d="M949.544 820.955C980.786 765.367 985.41 696.748 963.888 636.905C957.726 619.772 949.361 603.56 939.055 588.557C937.051 585.642 941.732 582.761 943.734 585.675C980.769 639.586 991.779 709.607 975.045 772.664C970.333 790.421 963.393 807.526 954.393 823.54C952.662 826.619 947.807 824.045 949.544 820.955Z" fill="#314B79"/>
<path d="M980.759 728.342C985.685 726.691 990.656 725.057 995.36 722.828C997.312 721.903 1007.6 717.049 1007.52 714.576C1007.32 708.254 997.265 718.769 996.173 719.89C992.401 723.762 988.641 727.647 984.876 731.526C982.417 734.058 978.415 730.291 980.887 727.744C984.673 723.845 1007.07 695.793 1013.53 710.212C1015.78 715.232 1010.43 719.763 1006.91 722.382C999.633 727.794 990.861 730.748 982.36 733.598C979 734.725 977.405 729.467 980.759 728.342Z" fill="#314B79"/>
<path d="M979.18 700.043C985.088 696.418 990.894 692.637 996.546 688.623C999.811 686.304 1003.1 683.944 1005.95 681.117C1007.85 679.231 1012.13 675.155 1011.78 672.306C1012.53 670.916 1012.05 670.524 1010.36 671.128C1009.25 670.945 1008.23 671.164 1007.3 671.787C1005.16 672.637 1003.44 674.261 1001.78 675.815C999.366 678.087 997.134 680.646 995.087 683.25C990.39 689.224 986.737 695.782 983.832 702.79C982.479 706.055 977.639 703.448 978.983 700.206C983.32 689.741 989.565 679.891 997.795 672.033C1002.1 667.923 1010.09 662.297 1016.08 666.951C1021.85 671.435 1013.3 681.553 1009.94 684.899C1001.96 692.844 991.598 698.87 982.063 704.722C979.051 706.571 976.157 701.898 979.18 700.043Z" fill="#314B79"/>
<path d="M974.64 664.201C981.299 660.617 987.555 656.415 993.191 651.355C995.708 649.094 998.101 646.703 1000.36 644.184C1002.03 642.33 1007.63 637.284 1007.6 634.768C1006.76 633.246 1005.92 631.725 1005.08 630.203C1004.01 630.508 1002.97 630.909 1001.97 631.409C1000.39 632.118 998.893 632.94 997.46 633.915C994.599 635.862 992.039 638.3 989.853 640.983C984.276 647.826 981.073 656.173 978.431 664.494C977.368 667.845 971.998 666.663 973.068 663.291C976.468 652.579 980.795 641.762 989.02 633.791C993.505 629.444 1004.92 620.494 1011.29 626.06C1018.53 632.4 1009.26 642.384 1005.03 647.21C997.268 656.062 987.871 663.309 977.523 668.879C974.424 670.548 971.515 665.883 974.64 664.201Z" fill="#314B79"/>
<path d="M963.644 627.765C967.672 619.548 974.049 613.192 979.161 605.702C981.271 602.611 983.14 599.256 984.262 595.67C985.218 592.616 986.916 585.374 983.714 583.305C980.124 580.986 975.025 586.531 973.338 589.374C970.85 593.567 970.401 598.645 970.401 603.409C970.403 611.764 971.633 619.897 969.688 628.143C968.875 631.587 963.513 630.384 964.325 626.939C967.221 614.663 962.313 601.55 967.157 589.595C969.811 583.044 977.703 574.97 985.618 577.397C993.372 579.776 990.992 593.274 988.946 598.839C984.542 610.814 974.049 619.015 968.493 630.35C966.935 633.527 962.088 630.939 963.644 627.765Z" fill="#314B79"/>
<path d="M940.916 589.682C943.343 581.043 943.186 572.215 941.253 563.485C939.9 557.377 936.709 543.849 929.621 541.805C927.64 540.13 926.632 541.217 926.597 545.064C926.749 545.714 926.901 546.364 927.053 547.013C927.249 548.928 928.075 550.953 928.64 552.804C929.809 556.632 931.183 560.4 932.771 564.074C936.127 571.838 940.509 579.083 945.552 585.86C947.662 588.695 942.975 591.567 940.873 588.743C933.745 579.164 928.102 568.594 924.303 557.264C922.479 551.827 916.336 535.272 927.668 535.487C937.229 535.669 942.684 548.607 944.999 556.155C948.455 567.425 949.491 579.45 946.278 590.886C945.325 594.282 939.958 593.09 940.916 589.682Z" fill="#314B79"/>
<path d="M959.098 629.139C954.917 623.702 949.721 619.363 944.085 615.498C941.779 613.917 939.405 612.435 937.027 610.963C936.295 610.51 934.553 608.948 933.696 608.947C932.803 608.149 932.26 608.603 932.067 610.31C930.507 611.826 930.829 613.15 933.033 614.28C935.03 616.418 937.34 618.684 939.837 620.219C943.32 622.361 946.912 621.893 950.783 622.261C956.216 622.778 961.109 624.819 965.533 627.951C968.38 629.966 965.832 634.841 962.949 632.8C957.057 628.63 951.675 628.126 944.708 627.528C940.813 627.194 937.922 625.706 934.852 623.348C930.28 619.834 921.349 612.447 925.203 605.612C929.229 598.474 937.861 604.971 942.279 607.777C950.381 612.921 957.884 618.594 963.777 626.255C965.93 629.055 961.239 631.923 959.098 629.139Z" fill="#314B79"/>
<path d="M972.043 670.563C968.044 667.011 964.042 663.398 959.436 660.635C957.195 659.291 948.932 654.413 946.272 656.489C946.707 655.674 947.142 654.858 947.577 654.042C947.502 658.348 953.248 663.84 956.603 665.698C960.93 668.093 966.444 667.305 971.28 667.052C974.82 666.867 975.027 672.359 971.496 672.544C964.293 672.921 956.648 673.73 950.896 668.56C947.681 665.671 940.77 658.872 942.117 653.903C943.599 648.443 951.538 651.188 955.112 652.474C963.101 655.347 969.574 661.023 975.824 666.574C978.466 668.922 974.69 672.915 972.043 670.563Z" fill="#314B79"/>
<path d="M978.287 709.422C970.456 706.82 963.197 703.158 956.646 698.107C952.821 695.157 945.195 690.001 950.062 684.642C960.336 673.33 977.254 695.305 980.895 703.182C982.36 706.351 977.701 709.278 976.216 706.065C974.35 702.028 972.078 698.34 968.973 695.115C967.481 693.566 954.883 684.174 955.505 688.842C955.967 692.302 963.189 696.194 965.887 697.83C970.189 700.44 974.716 702.472 979.491 704.058C982.82 705.165 981.642 710.536 978.287 709.422Z" fill="#314B79"/>
<path d="M975.594 735.335C970.283 732.195 944.986 717.944 953.083 709.177C956.162 705.842 961.44 708.129 964.419 710.216C970.723 714.631 974.727 722.343 978.49 728.832C980.261 731.885 975.592 734.786 973.812 731.715C971.939 728.487 970.027 725.269 967.916 722.19C966.595 720.264 965.243 718.276 963.564 716.637C962.462 715.563 959.686 711.829 959.441 714.928C959.213 717.81 964.436 720.903 966.6 722.625C970.267 725.544 974.148 728.104 978.179 730.486C981.214 732.279 978.646 737.138 975.594 735.335Z" fill="#314B79"/>
<path d="M174.199 814.796C138.067 794.236 112.353 757.401 104.366 716.701C102.105 705.174 101.314 693.426 102.03 681.702C102.127 680.116 99.6698 679.844 99.573 681.433C97.0008 723.562 114.057 765.939 144.23 795.319C152.8 803.664 162.362 810.889 172.759 816.806C174.127 817.584 175.583 815.585 174.199 814.796Z" fill="#4C99AF"/>
<path d="M126.35 773.728C123.311 774.4 120.264 775.077 117.171 775.457C114.351 775.803 110.028 776.512 107.35 775.229C105.964 775.198 105.449 774.287 105.807 772.495C106.927 772 108.096 771.82 109.314 771.953C111.108 772.056 112.858 772.618 114.585 773.067C118.032 773.961 121.471 774.891 124.914 775.803C126.437 776.207 127.335 773.903 125.797 773.495C122.224 772.549 102.643 764.859 102.347 773.498C102.054 782.026 122.77 777.047 126.722 776.172C128.27 775.828 127.904 773.384 126.35 773.728Z" fill="#4C99AF"/>
<path d="M117.641 757.517C112.649 757.473 107.654 757.289 102.68 756.852C99.0318 756.531 91.665 756.171 89.4251 752.649C88.1616 751.919 88.5448 751.21 90.5747 750.522C91.1498 750.365 91.7249 750.207 92.3004 750.05C93.5744 749.869 94.924 750.088 96.176 750.33C98.5743 750.793 100.94 751.56 103.223 752.421C107.839 754.163 112.101 756.584 116.054 759.522C117.331 760.47 118.773 758.463 117.494 757.513C112.083 753.492 106.046 750.413 99.5326 748.627C95.6777 747.569 88.7248 746.14 86.5222 750.933C84.654 754.999 93.0638 757.697 95.6675 758.321C102.643 759.992 110.241 759.911 117.373 759.974C118.952 759.988 119.231 757.531 117.641 757.517Z" fill="#4C99AF"/>
<path d="M107.87 736.083C102.766 736.33 97.6644 735.99 92.6518 734.979C90.2017 734.484 87.789 733.828 85.4221 733.026C84.2839 732.641 83.1562 732.226 82.0447 731.769C81.5062 731.557 80.9744 731.328 80.4499 731.083C77.5873 730.038 77.2087 728.845 79.3146 727.504C80.6599 726.027 81.0347 725.893 82.8354 725.771C84.2032 725.678 85.5897 725.742 86.9478 725.929C89.4322 726.271 91.8475 727.007 94.1333 728.032C98.8026 730.126 102.828 733.365 106.637 736.728C107.827 737.779 109.261 735.765 108.077 734.719C102.71 729.981 96.813 725.606 89.7213 723.942C86.0634 723.084 77.1013 721.907 75.5285 726.705C73.5915 732.612 83.0323 734.94 86.8303 736.06C93.8006 738.117 100.993 738.878 108.243 738.527C109.832 738.45 109.444 736.007 107.87 736.083Z" fill="#4C99AF"/>
<path d="M101.82 712.119C97.7737 709.47 93.2649 707.978 88.79 706.236C84.1594 704.433 74.6083 700.148 75.7011 693.916C75.4991 692.558 76.1047 691.883 77.5175 691.891C78.4011 691.702 79.2949 691.661 80.1985 691.771C81.6771 691.928 83.1795 692.458 84.4484 693.218C87.0665 694.786 88.9275 697.315 90.4914 699.875C93.3082 704.484 95.2748 709.468 99.1169 713.38C100.222 714.505 102.142 712.946 101.025 711.808C95.7434 706.431 94.0203 698.59 88.5838 693.359C85.0829 689.99 77.4759 686.9 73.4174 691.275C69.7493 695.229 76.7451 702.258 79.7448 704.396C86.0166 708.866 93.9566 709.922 100.38 714.128C101.706 714.996 103.156 712.993 101.82 712.119Z" fill="#4C99AF"/>
<path d="M101.591 683.277C97.6225 679.549 94.8388 674.988 92.9481 669.899C91.1185 664.976 89.2495 658.472 91.1368 653.284C91.3192 651.643 92.1265 651.248 93.5584 652.101C94.7964 651.846 95.4699 652.252 95.5798 653.319C96.3136 654.374 96.567 656.537 96.8831 657.776C97.4981 660.186 97.9785 662.632 98.3304 665.095C99.1388 670.757 99.1902 676.456 98.6262 682.143C98.4687 683.728 100.926 683.995 101.083 682.412C101.873 674.449 101.456 666.413 99.6222 658.613C98.8396 655.284 97.1331 645.58 91.5828 648.668C86.3928 651.555 87.8502 660.851 88.9876 665.416C90.8074 672.72 94.1509 679.651 99.6829 684.85C100.825 685.922 102.75 684.367 101.591 683.277Z" fill="#4C99AF"/>
<path d="M104.447 710.956C104.922 706.69 106.218 702.687 107.955 698.777C108.731 697.032 109.578 695.321 110.447 693.621C110.822 692.886 111.406 690.974 112.092 690.505C114.645 690.305 115.724 690.95 115.328 692.441C115.256 693.038 115.151 693.63 115.014 694.216C114.525 696.481 113.788 699.307 112.341 701.181C111.118 702.766 109.183 703.519 107.612 704.686C104.79 706.784 102.778 709.598 101.4 712.805C100.771 714.27 103.081 715.148 103.709 713.688C105.302 709.98 107.755 707.53 111.102 705.349C112.947 704.147 114.307 702.959 115.32 700.961C116.983 697.678 120.086 689.75 115.888 687.067C111.745 684.418 109.287 690.465 107.877 693.248C105.074 698.783 102.681 704.473 101.99 710.687C101.814 712.271 104.271 712.537 104.447 710.956Z" fill="#4C99AF"/>
<path d="M111.083 738.156C111.974 735.305 112.849 732.425 114.108 729.709C114.924 727.951 117.853 721.778 120.254 721.839C121.794 721.877 119.894 729.278 119.352 730.34C117.788 733.403 114.164 734.869 111.25 736.419C109.854 737.162 110.851 739.424 112.258 738.676C116.007 736.681 120.476 734.738 122.016 730.458C122.95 727.864 124.587 721.852 122.424 719.482C120.196 717.041 117.046 720.884 115.599 722.609C112.079 726.805 110.382 732.133 108.775 737.273C108.301 738.786 110.607 739.677 111.083 738.156Z" fill="#4C99AF"/>
<path d="M120.931 761.308C124.286 757.423 127.005 753.046 128.869 748.256C129.907 745.588 132.555 740.29 128.224 739.163C124.068 738.082 121.393 742.588 120.045 745.736C118.181 750.083 117.649 754.808 118.183 759.486C118.363 761.07 120.806 760.691 120.626 759.114C120.259 755.895 120.422 752.657 121.316 749.53C121.693 748.212 122.183 746.914 122.779 745.679C123.158 744.894 123.581 744.07 124.117 743.376C125.153 742.036 127.698 741.43 127.764 743.813C127.832 746.276 125.509 749.993 124.366 752.097C122.846 754.896 121.002 757.46 118.922 759.868C117.883 761.071 119.896 762.506 120.931 761.308Z" fill="#4C99AF"/>
<path d="M130.785 775.185C133.179 770.787 135.221 766.181 136.542 761.339C137.145 759.128 138.102 755.069 135.187 753.958C132.249 752.84 130.093 756.485 129.266 758.753C127.699 763.049 128.005 768.138 128.08 772.62C128.106 774.192 130.564 774.475 130.537 772.888C130.491 770.166 130.488 767.431 130.684 764.713C130.787 763.299 130.92 761.866 131.302 760.494C131.694 759.089 131.936 757.238 133.67 757.846C134.696 757.781 135.001 758.177 134.584 759.035C134.397 759.881 134.175 760.717 133.915 761.543C133.54 762.808 133.107 764.058 132.647 765.294C131.563 768.206 130.261 771.017 128.776 773.746C128.026 775.124 130.024 776.583 130.785 775.185Z" fill="#4C99AF"/>
<path d="M40.2931 800.438C21.9119 767.732 19.1915 727.362 31.8539 692.155C35.4791 682.075 40.4009 672.537 46.4647 663.71C47.6432 661.995 44.8897 660.299 43.712 662.014C21.9229 693.732 15.4453 734.928 25.2901 772.026C28.0627 782.473 32.1454 792.537 37.4407 801.958C38.4584 803.769 41.315 802.255 40.2931 800.438Z" fill="#314B79"/>
<path d="M21.9302 745.95C19.032 744.978 16.1074 744.017 13.3395 742.706C12.1911 742.162 6.13701 739.306 6.18327 737.851C6.30125 734.132 12.2187 740.318 12.8608 740.977C15.08 743.255 17.2919 745.541 19.5077 747.823C20.9541 749.312 23.3091 747.096 21.8547 745.598C19.6274 743.304 6.45276 726.8 2.64886 735.283C1.32474 738.236 4.47591 740.902 6.54656 742.443C10.8254 745.627 15.9865 747.365 20.988 749.042C22.9645 749.705 23.9028 746.611 21.9302 745.95Z" fill="#314B79"/>
<path d="M22.8574 729.3C19.382 727.168 15.966 724.943 12.6408 722.582C10.7196 721.217 8.78601 719.829 7.10751 718.166C5.98752 717.056 3.4704 714.658 3.67623 712.982C3.23698 712.164 3.51624 711.934 4.51358 712.289C5.16843 712.181 5.76852 712.31 6.3143 712.677C7.57053 713.177 8.58611 714.132 9.55841 715.046C10.981 716.383 12.2941 717.889 13.4985 719.421C16.2618 722.935 18.411 726.794 20.12 730.917C20.9162 732.838 23.7635 731.304 22.9728 729.396C20.4209 723.24 16.7473 717.445 11.9053 712.821C9.37253 710.403 4.67146 707.094 1.14724 709.832C-2.24838 712.47 2.78414 718.422 4.76057 720.391C9.45443 725.066 15.551 728.611 21.1611 732.054C22.9334 733.141 24.6361 730.392 22.8574 729.3Z" fill="#314B79"/>
<path d="M25.5288 708.213C21.6112 706.104 17.9304 703.633 14.6145 700.655C13.1334 699.325 11.7257 697.918 10.396 696.437C9.41692 695.346 6.12189 692.378 6.13929 690.897C6.63287 690.002 7.12601 689.107 7.61959 688.212C8.25109 688.391 8.86011 688.628 9.44663 688.921C10.3765 689.338 11.2597 689.821 12.1025 690.395C13.7861 691.541 15.2923 692.975 16.5782 694.553C19.8597 698.579 21.744 703.49 23.2982 708.386C23.9237 710.358 27.083 709.662 26.4536 707.678C24.453 701.376 21.9074 695.012 17.0684 690.322C14.4299 687.765 7.71296 682.499 3.96891 685.774C-0.295464 689.504 5.16146 695.378 7.65057 698.217C12.2158 703.426 17.7445 707.689 23.8325 710.966C25.6562 711.947 27.3678 709.202 25.5288 708.213Z" fill="#314B79"/>
<path d="M31.9981 686.777C29.6283 681.942 25.8766 678.203 22.8689 673.797C21.6275 671.978 20.5279 670.004 19.8675 667.894C19.3052 666.097 18.3057 661.836 20.1901 660.619C22.3023 659.255 25.3019 662.517 26.2942 664.189C27.7584 666.656 28.0223 669.644 28.0219 672.447C28.0211 677.362 27.2975 682.148 28.4417 686.999C28.9195 689.026 32.0749 688.317 31.5971 686.291C29.8935 679.068 32.7807 671.353 29.9313 664.32C28.3699 660.466 23.7266 655.715 19.07 657.144C14.5077 658.543 15.9087 666.484 17.1123 669.758C19.7028 676.804 25.8762 681.629 29.1453 688.297C30.062 690.167 32.9136 688.644 31.9981 686.777Z" fill="#314B79"/>
<path d="M45.3682 664.371C43.9401 659.289 44.0331 654.095 45.17 648.959C45.9658 645.365 47.8433 637.406 52.0135 636.204C53.1789 635.218 53.7718 635.858 53.7926 638.121C53.703 638.504 53.6139 638.886 53.5243 639.268C53.4093 640.395 52.923 641.586 52.5907 642.675C51.9031 644.927 51.0942 647.144 50.1601 649.305C48.1858 653.873 45.6076 658.136 42.6406 662.123C41.3993 663.791 44.157 665.48 45.3933 663.819C49.5868 658.183 52.9068 651.964 55.1421 645.298C56.2146 642.1 59.8288 632.36 53.1619 632.487C47.5373 632.594 44.3276 640.205 42.9657 644.646C40.9324 651.276 40.3225 658.351 42.2128 665.079C42.7743 667.078 45.9314 666.377 45.3682 664.371Z" fill="#314B79"/>
<path d="M34.6717 687.585C37.1316 684.387 40.1885 681.834 43.5043 679.56C44.8612 678.63 46.2578 677.758 47.6566 676.892C48.0874 676.626 49.1124 675.707 49.6165 675.706C50.1419 675.236 50.4615 675.503 50.5749 676.508C51.4928 677.4 51.3036 678.179 50.0066 678.844C48.8314 680.102 47.4725 681.435 46.0037 682.338C43.9546 683.598 41.8411 683.323 39.5634 683.539C36.3672 683.843 33.4881 685.045 30.8857 686.887C29.2105 688.072 30.71 690.941 32.4063 689.739C35.8724 687.286 39.0388 686.989 43.1377 686.638C45.4294 686.441 47.1304 685.566 48.9362 684.179C51.6265 682.111 56.881 677.765 54.613 673.744C52.2449 669.544 47.166 673.367 44.5666 675.018C39.8002 678.045 35.386 681.381 31.9191 685.889C30.6522 687.536 33.4117 689.223 34.6717 687.585Z" fill="#314B79"/>
<path d="M27.0575 711.957C29.4104 709.867 31.7645 707.741 34.4743 706.115C35.7925 705.325 40.6544 702.455 42.2188 703.676C41.9628 703.196 41.7069 702.716 41.4515 702.236C41.4956 704.77 38.1148 708 36.1409 709.094C33.5954 710.503 30.3517 710.04 27.5061 709.891C25.4231 709.782 25.3018 713.013 27.3792 713.122C31.6173 713.344 36.1146 713.82 39.4992 710.778C41.3903 709.078 45.4565 705.078 44.6637 702.155C43.7924 698.942 39.1215 700.557 37.0186 701.314C32.3184 703.004 28.5102 706.344 24.8332 709.61C23.2778 710.991 25.5 713.34 27.0575 711.957Z" fill="#314B79"/>
<path d="M23.3823 734.818C27.99 733.288 32.2603 731.134 36.1143 728.161C38.3649 726.426 42.8517 723.393 39.9878 720.239C33.9431 713.584 23.9901 726.513 21.8477 731.147C20.9858 733.012 23.727 734.733 24.6008 732.843C25.6983 730.468 27.0347 728.299 28.8622 726.401C29.7398 725.49 37.1524 719.964 36.7857 722.71C36.5141 724.746 32.265 727.036 30.6778 727.998C28.1471 729.533 25.4835 730.729 22.6744 731.663C20.7154 732.314 21.4089 735.474 23.3823 734.818Z" fill="#314B79"/>
<path d="M24.9674 750.063C28.0922 748.216 42.9755 739.831 38.2116 734.673C36.3999 732.712 33.295 734.057 31.5418 735.285C27.8334 737.882 25.4775 742.42 23.2634 746.237C22.2215 748.033 24.9682 749.74 26.0161 747.933C27.1174 746.034 28.2425 744.141 29.4847 742.329C30.2618 741.196 31.0571 740.026 32.0451 739.062C32.6932 738.43 34.3267 736.233 34.471 738.056C34.6046 739.752 31.5324 741.572 30.2592 742.585C28.102 744.302 25.8183 745.808 23.4468 747.21C21.6613 748.265 23.1717 751.124 24.9674 750.063Z" fill="#314B79"/>
<path d="M502.762 337.251C579.224 337.251 641.209 279.043 641.209 207.239C641.209 135.435 579.224 77.2266 502.762 77.2266C426.299 77.2266 364.314 135.435 364.314 207.239C364.314 279.043 426.299 337.251 502.762 337.251Z" fill="white"/>
<path d="M642.282 332.174C695.987 332.174 739.523 296.48 739.523 252.45C739.523 208.42 695.987 172.727 642.282 172.727C588.577 172.727 545.041 208.42 545.041 252.45C545.041 296.48 588.577 332.174 642.282 332.174Z" fill="#4A61E4" fill-opacity="0.05"/>
<path d="M373.61 332.174C427.315 332.174 470.851 296.48 470.851 252.45C470.851 208.42 427.315 172.727 373.61 172.727C319.905 172.727 276.369 208.42 276.369 252.45C276.369 296.48 319.905 332.174 373.61 332.174Z" fill="white"/>
<path d="M403.213 219.253C403.213 163.346 443.655 113.953 505.416 113.953C560.894 113.953 605.867 159.274 605.867 215.181C605.867 271.088 560.894 316.409 505.416 316.409C449.939 316.409 403.213 275.16 403.213 219.253Z" fill="#314B79"/>
<path d="M561.855 272.169H451.044C448.418 272.169 446.289 270.024 446.289 267.378V246.846C446.289 244.2 448.418 242.055 451.044 242.055C453.669 242.055 455.798 244.2 455.798 246.846V257.796C455.798 260.442 457.927 262.587 460.553 262.587H552.346C554.972 262.587 557.101 260.442 557.101 257.796V246.846C557.101 244.2 559.229 242.055 561.855 242.055H561.856C564.481 242.055 566.61 244.2 566.61 246.846V267.378C566.61 270.024 564.481 272.169 561.855 272.169Z" fill="white"/>
<path d="M521.359 204.467V146.288C521.359 144.076 519.58 142.284 517.386 142.284H497.399C495.205 142.284 493.426 144.076 493.426 146.288V204.467C493.426 206.678 491.647 208.471 489.454 208.471H479.395C475.887 208.471 474.101 212.717 476.54 215.258L504.352 244.228C505.938 245.879 508.575 245.85 510.124 244.162L536.706 215.192C539.059 212.628 537.254 208.471 533.789 208.471H525.331C523.137 208.471 521.359 206.678 521.359 204.467Z" fill="white"/>
<path d="M415.409 160.215C422.092 144.108 434.112 131.394 449.596 123.631C451.792 122.53 449.864 119.216 447.673 120.315C431.237 128.555 418.805 142.154 411.734 159.194C410.789 161.471 414.475 162.465 415.409 160.215Z" fill="#FF8D67"/>
<path d="M609.437 230.451C608.838 236.256 607.379 241.829 605.17 247.218C604.235 249.5 607.921 250.495 608.845 248.239C611.194 242.506 612.612 236.614 613.248 230.451C613.502 227.996 609.689 228.013 609.437 230.451Z" fill="#FF8D67"/>
<path d="M375.343 5.15579C375.343 5.15579 354.919 -6.44814 342.247 5.16089C329.574 16.7699 353.465 34.2123 320.454 31.8285C287.444 29.4446 281.288 50.1426 293.465 56.1483C305.643 62.154 394.19 61.031 399.219 56.7743C404.248 52.5175 396.12 50.9939 391.981 43.8271C387.842 36.6603 408.099 44.7807 407.586 31.8145C407.072 18.8482 379.995 22.6504 380.065 16.0858C380.135 9.52075 380.347 7.44585 375.343 5.15579Z" fill="#4A61E4" fill-opacity="0.2"/>
<path d="M286.732 39.5715C286.624 39.5982 286.508 39.5986 286.394 39.5677C286.048 39.473 285.85 39.1225 285.953 38.7846C287.426 33.963 301.671 24.1556 315.612 26.7758C323.467 28.2523 329.763 27.3692 332.453 24.4141C333.852 22.8765 334.172 20.8296 333.379 18.4945C330.857 11.0811 334.902 4.34504 335.075 4.06238C335.261 3.75851 335.662 3.65497 335.973 3.83067C336.282 4.00552 336.383 4.39384 336.198 4.69729C336.159 4.7618 332.291 11.2262 334.622 18.0799C335.57 20.8678 335.157 23.3454 333.428 25.2454C330.377 28.5969 323.786 29.6095 315.342 28.0223C302.319 25.5744 288.542 34.7567 287.207 39.1267C287.139 39.3542 286.952 39.5176 286.732 39.5715Z" fill="#4A61E4" fill-opacity="0.2"/>
<path d="M324.943 64.6398C324.908 64.6487 324.871 64.6546 324.833 64.6576C323.971 64.7247 303.629 66.2678 294.614 63.9561C285.29 61.5659 284.222 54.2399 284.181 53.9296C284.135 53.5829 284.391 53.2616 284.748 53.2107C285.106 53.1606 285.434 53.4012 285.48 53.748C285.519 54.0357 286.513 60.5609 294.967 62.7283C303.768 64.9852 324.541 63.4086 324.749 63.3925C325.11 63.3645 325.421 63.625 325.444 63.9747C325.465 64.2867 325.248 64.5647 324.943 64.6398Z" fill="#4A61E4" fill-opacity="0.2"/>
<path d="M838.115 139.462C838.115 139.462 821.781 130.182 811.646 139.466C801.512 148.75 820.617 162.7 794.218 160.793C767.82 158.887 762.896 175.439 772.635 180.242C782.373 185.045 853.186 184.147 857.208 180.743C861.23 177.339 854.73 176.12 851.42 170.389C848.109 164.657 864.31 171.152 863.899 160.782C863.489 150.413 841.835 153.453 841.89 148.203C841.946 142.953 842.117 141.294 838.115 139.462Z" fill="#4A61E4" fill-opacity="0.2"/>
<path d="M767.25 166.986C767.164 167.007 767.071 167.008 766.98 166.983C766.703 166.907 766.545 166.627 766.627 166.357C767.806 162.501 779.197 154.657 790.346 156.753C796.628 157.934 801.663 157.227 803.814 154.864C804.933 153.635 805.189 151.998 804.555 150.131C802.538 144.202 805.773 138.815 805.912 138.589C806.06 138.345 806.381 138.263 806.629 138.403C806.877 138.543 806.958 138.853 806.81 139.096C806.778 139.148 803.685 144.318 805.55 149.799C806.308 152.029 805.978 154.01 804.595 155.529C802.155 158.209 796.884 159.019 790.131 157.75C779.716 155.793 768.699 163.136 767.631 166.631C767.575 166.812 767.426 166.943 767.25 166.986Z" fill="#4A61E4" fill-opacity="0.2"/>
<path d="M797.81 187.033C797.781 187.04 797.752 187.045 797.721 187.047C797.032 187.1 780.764 188.334 773.555 186.486C766.098 184.574 765.244 178.715 765.211 178.467C765.175 178.189 765.379 177.933 765.664 177.892C765.951 177.852 766.212 178.044 766.249 178.321C766.281 178.551 767.076 183.77 773.836 185.504C780.875 187.309 797.487 186.048 797.654 186.035C797.943 186.012 798.191 186.221 798.21 186.5C798.227 186.75 798.053 186.973 797.81 187.033Z" fill="#4A61E4" fill-opacity="0.2"/>
<path d="M231.874 319.954C231.874 319.954 203.239 300.707 183.398 316.314C163.558 331.921 196.627 360.101 148.541 352.971C100.455 345.842 89.1562 375.479 106.331 385.617C123.505 395.756 253.32 403.87 261.156 398.19C268.992 392.509 257.254 389.382 251.981 378.428C246.709 367.475 275.485 381.601 276.162 362.554C276.839 343.506 236.761 346.09 237.587 336.483C238.411 326.876 238.951 323.86 231.874 319.954Z" fill="#4A61E4" fill-opacity="0.2"/>
<path d="M98.2964 360.597C98.1351 360.624 97.9654 360.612 97.8016 360.554C97.3046 360.377 97.0542 359.842 97.2422 359.359C99.9312 352.459 121.875 339.664 142.006 345.039C153.349 348.067 162.668 347.467 166.933 343.436C169.152 341.338 169.847 338.375 168.942 334.868C166.065 323.731 172.731 314.311 173.017 313.916C173.323 313.491 173.922 313.384 174.357 313.676C174.792 313.966 174.897 314.546 174.592 314.97C174.527 315.06 168.15 324.103 170.809 334.398C171.891 338.586 171.013 342.169 168.27 344.762C163.433 349.334 153.667 350.091 141.474 346.836C122.669 341.815 101.479 353.746 99.0425 359.999C98.916 360.323 98.6244 360.542 98.2964 360.597Z" fill="#4A61E4" fill-opacity="0.2"/>
<path d="M151.503 401.524C151.45 401.533 151.395 401.538 151.338 401.538C150.069 401.541 120.105 401.56 107.155 397.18C93.7626 392.651 93.0054 381.804 92.98 381.344C92.9511 380.831 93.3611 380.388 93.8886 380.354C94.4191 380.32 94.8724 380.708 94.9016 381.221C94.928 381.647 95.6643 391.314 107.807 395.42C120.45 399.696 151.048 399.676 151.356 399.675C151.887 399.674 152.314 400.09 152.309 400.605C152.306 401.065 151.957 401.448 151.503 401.524Z" fill="#4A61E4" fill-opacity="0.2"/>
</svg>
