<svg width="712" height="579" viewBox="0 0 712 579" fill="none" xmlns="http://www.w3.org/2000/svg">
<path d="M711.299 270.002C611.354 279.281 508.493 275.504 415.329 244.292C389.548 235.656 364.782 225.013 339.971 214.537C278.668 188.655 216.41 163.551 150.346 148.214C102.884 137.195 49.8094 138.476 0 143C30.7822 141.735 61.5899 202.019 92.0634 205.515C132.421 210.146 173.036 223.508 199.565 249.671C166.701 274.969 120.702 283.334 76.7776 288.919C51.2789 292.161 25.6722 306.476 0 308.5C44.5059 300.778 89.0446 305.164 133.753 298.325C175.247 291.978 217.379 286.259 259.412 289.089C316.738 292.948 370.683 312.419 425.096 328.176C508.445 352.312 595.149 368.129 682.841 375.197C692.318 375.961 701.807 376.618 711.299 377.234V270.002Z" fill="#A8C5DA"/>
<path d="M415.329 244.292C389.548 235.656 364.782 225.013 339.971 214.537C278.668 188.654 216.41 163.551 150.346 148.214C102.884 137.195 50.3094 138.476 0.5 143C55.4293 140.539 105.727 153.92 155.453 177.577C143.219 181.638 130.284 184.183 117.188 185.102C142.884 197.011 169.279 207.838 196.242 217.533C203.322 220.08 211.16 222.586 218.518 220.686C225.876 218.785 230.902 210.207 225.566 205.514C244.539 219.169 267.43 228.894 291.701 233.609C302.204 235.649 313.18 236.834 322.614 241.244C335.783 247.399 345.372 259.551 360.204 261.672C368.362 262.839 376.597 260.666 384.804 259.783C405.618 257.542 427.499 264.166 441.917 277.072C431.674 275.551 420.612 278.915 413.855 285.607C483.831 309.515 559.281 321.874 634.74 321.787C608.872 312.401 583.003 303.014 557.135 293.628C579.417 284.843 604.914 295.072 628.461 301.035C655.213 307.811 683.918 308.791 711.297 304.188V270C611.354 279.281 508.493 275.504 415.329 244.292Z" fill="#314B79"/>
<path d="M196.654 246.913C197.64 247.817 198.614 248.734 199.565 249.671C166.701 274.969 120.702 283.334 76.7776 288.919C51.2789 292.161 25.6722 306.532 0 308.557C22.7687 306.585 47.1634 302.189 52.8182 301.313C102.229 293.656 151.27 284.289 199.778 273.244C207.718 271.435 215.932 269.457 222.147 264.899C228.362 260.342 231.949 252.428 228.23 246.22C217.683 246.174 207.159 246.425 196.654 246.913Z" fill="#314B79"/>
<path d="M543.771 67.4353C552.001 67.4552 559.853 71.0074 568.065 71.5637C585.658 72.7572 601.74 60.2412 619.373 60.1644C622.263 60.1516 625.222 60.4987 627.807 61.789C630.541 63.1547 632.665 65.4735 634.625 67.8194C640.994 75.4431 646.346 83.9175 650.494 92.9453C651.877 95.9555 653.15 99.1635 652.93 102.468C652.709 105.773 650.565 109.173 647.312 109.795C655.961 127.448 659.015 147.792 655.931 167.206C654.274 177.637 650.891 188.117 652.581 198.542C653.449 203.894 655.623 208.93 657.398 214.052C660.246 222.268 662.097 230.829 662.899 239.488C663.4 244.889 663.468 250.481 661.576 255.562C657.591 266.263 645.938 272.137 634.737 274.356C618.113 277.65 600.887 275.13 584.372 271.326C575.244 269.224 565.828 266.526 558.929 260.193C553.79 255.476 550.491 249.132 547.374 242.891C541.954 232.037 536.726 220.946 534.116 209.099C530.475 192.573 532.086 175.329 529.649 158.584C526.153 134.568 495.428 67.3186 543.771 67.4353Z" fill="#602F24"/>
<path d="M638.332 260.632C637.845 258.134 637.488 255.374 638.797 253.192C640.416 250.492 643.913 249.71 646.468 247.869C653.04 243.131 651.881 233.121 649.481 225.383C647.081 217.646 644.362 208.461 649.368 202.091C650.301 200.903 651.448 199.919 652.676 199.014C652.647 198.856 652.61 198.701 652.585 198.543C650.893 188.118 654.278 177.638 655.935 167.207C656.09 166.236 656.217 165.26 656.34 164.283C654.265 159.249 652.189 154.216 650.114 149.182C647.145 141.982 644.15 134.69 643.058 126.979C642.59 123.677 642.287 119.947 639.729 117.808C637.888 116.269 635.346 115.988 633.051 115.281C628.109 113.759 624.133 110.147 620.334 106.638C617.212 103.753 613.964 100.678 612.681 96.6253C610.866 90.8922 613.078 83.6356 608.853 79.3564C606.942 77.4217 604.154 76.6762 601.481 76.174C591.34 74.2692 580.761 74.7472 570.834 77.5625C566.38 78.8243 561.971 80.5642 557.343 80.6609C551.782 80.7761 546.487 78.5171 541.06 77.2993C534.459 75.817 527.565 76.0489 521.022 77.7062C508.766 97.4589 527.006 140.406 529.652 158.585C532.091 175.33 530.479 192.574 534.119 209.1C536.73 220.949 541.958 232.038 547.378 242.892C550.495 249.133 553.792 255.477 558.932 260.194C565.832 266.527 575.248 269.225 584.375 271.327C600.89 275.133 618.117 277.651 634.741 274.357C636.965 273.916 639.202 273.326 641.397 272.589C640.16 268.661 639.118 264.672 638.332 260.632Z" fill="#421C16"/>
<path d="M623.629 99.1262C624.458 103.452 626.541 108.231 630.788 109.402C634.401 110.399 638.087 108.376 641.289 106.428C642.703 105.569 644.193 104.627 644.893 103.128C645.806 101.172 645.113 98.8787 644.398 96.8416C642.441 91.2749 640.382 85.7439 638.218 80.2541C636.543 76.0048 634.408 69.8307 630.186 67.5005C622.831 74.5238 621.838 89.7812 623.629 99.1262Z" fill="#421C16"/>
<path d="M527.978 108.695C527.251 107.545 526.464 106.524 525.635 105.615C525.878 105.04 526.08 104.444 526.179 103.797C526.526 101.519 526.436 98.6424 524.395 97.0491C516.324 90.7499 509.21 95.1642 503.563 103.24C501.041 104.903 498.752 107.178 496.907 109.991C491.447 118.31 487.97 130.187 489.268 140.488C488.323 144.147 489.089 148.187 492.635 151.572C517.821 175.605 541.544 130.142 527.978 108.695Z" fill="#6E9E75"/>
<path d="M506.341 161.779C506.849 162.978 507.424 164.217 508.461 165.005C509.498 165.792 511.138 165.941 512.02 164.984C512.672 164.277 512.73 163.223 512.73 162.261C512.729 155.653 511.652 149.101 511.003 142.525C509.829 130.613 510.07 118.56 511.719 106.703C512.066 104.211 512.436 101.501 511.185 99.3169C504.189 87.0939 499.584 119.947 499.45 122.959C498.861 136.193 501.17 149.569 506.341 161.779Z" fill="#602F24"/>
<path d="M498.434 102.024C503.258 104.246 509.248 103.696 513.586 100.631C512.901 115.132 521.306 128.288 525.632 142.144C528.339 150.815 529.46 159.887 530.57 168.902C532.067 181.072 533.565 193.414 531.825 205.552C530.086 217.69 524.693 229.81 514.816 237.077C513.179 238.282 511.275 239.586 510.991 241.598C510.587 244.452 513.613 246.493 516.246 247.667C526.605 252.286 537.676 255.302 548.947 256.578C554.309 257.184 560.247 257.241 564.481 253.893C568.609 250.63 569.965 245.058 571.066 239.911C574.57 223.525 578.095 206.783 576.142 190.141C573.292 165.862 559.228 144.634 548.725 122.558C543.328 111.213 538.609 99.0508 530.159 89.5336C524.446 83.0978 522.537 81.9597 515.442 87.0654C509.304 91.484 503.596 96.4986 498.434 102.024Z" fill="#49855E"/>
<path d="M523.319 116.434C526.095 124.161 530.677 131.088 534.376 138.418C541.715 152.964 545.567 169.256 545.52 185.549C545.483 198.145 542.088 212.308 531.202 218.644C528.83 220.024 526.085 221.061 524.53 223.32C523.436 224.911 523.097 226.907 523.055 228.837C522.834 238.703 529.778 247.682 538.453 252.388C547.126 257.094 557.27 258.228 567.134 258.505C571.285 258.622 575.496 258.596 579.506 257.52C586.588 255.618 592.524 250.505 596.498 244.343C600.472 238.182 602.645 231.019 604.01 223.817C607.079 207.628 606.274 190.885 603.401 174.66C598.326 145.979 586.315 117.816 565.337 97.6083C561.13 93.5567 556.395 89.7427 550.741 88.2718C543.702 86.4409 530.596 88.296 524.631 92.8909C518.32 97.7505 521.053 110.124 523.319 116.434Z" fill="#F4BB3A"/>
<path d="M534.39 67.5727C532.597 65.3335 530.785 63.0616 529.633 60.4369C523.976 47.5496 535.878 31.608 529.6 19.0109C526.667 13.1242 520.383 9.98877 513.714 9.46383C510.605 8.77387 507.385 8.77245 504.201 9.40693C496.24 7.22751 485.002 15.3434 480.821 21.2529C478.253 24.8819 477.379 29.0516 478.87 33.271C479.525 35.1218 486.37 50.6964 489.362 56.5105C490.554 58.8279 491.755 61.151 493.026 63.43C493.907 65.527 494.916 67.5371 496.106 69.7137C498.252 73.6358 500.881 78.0999 505.676 78.9833C508.591 79.521 512.439 79.0004 515.602 77.6176C520.574 83.9055 524.622 90.5575 527.304 98.2054C536.174 101.699 546.567 97.0147 550.879 88.5204C545.318 81.5781 539.951 74.5192 534.39 67.5727Z" fill="#F8AB94"/>
<path d="M502.925 0.0010586C507.778 -0.0444645 512.541 1.39236 517.39 1.58583C520.46 1.7096 523.559 1.33403 526.592 1.83905C529.625 2.34408 532.727 3.97011 533.901 6.83379C535.112 9.78568 533.988 13.1089 533.82 16.2926C533.587 20.7553 535.275 25.1056 535.514 29.5697C535.753 34.0338 533.745 39.2946 529.399 40.1795C528.8 40.3018 528.164 40.3288 527.588 40.1197C526.165 39.6005 525.619 37.919 525.065 36.5006C522.791 30.6651 517.683 26.5069 512.788 22.6275C507.465 18.4095 501.75 14.025 495.024 13.3023C492.205 12.9993 489.293 13.3977 486.501 12.8087C481.951 11.8484 483.449 9.96635 486.105 7.26342C490.498 2.79219 496.655 0.0608077 502.925 0.0010586Z" fill="#824737"/>
<path d="M535.515 29.5696C535.276 25.1055 533.587 20.7552 533.821 16.2925C533.987 13.1087 535.112 9.78556 533.902 6.83367C532.998 4.62864 530.948 3.16479 528.671 2.37524C525.786 10.6092 521.313 18.2756 515.661 24.9533C519.572 28.2039 523.238 31.8074 525.067 36.5005C525.621 37.9188 526.167 39.6003 527.59 40.1196C528.166 40.3301 528.802 40.3017 529.401 40.1793C533.745 39.2931 535.752 34.0323 535.515 29.5696Z" fill="#602F24"/>
<path d="M478.162 41.652C476.56 42.6678 474.647 43.4232 472.787 43.0419C470.929 42.6606 469.306 40.7757 469.78 38.9377C468.322 39.8539 466.314 39.4185 464.986 38.3217C463.658 37.2249 462.882 35.6074 462.267 33.9999C461.449 31.8646 460.856 29.412 461.833 27.345C462.81 25.2765 466.007 24.2778 467.427 26.0703C470.79 20.4155 474.755 14.9883 480 11.0164C485.245 7.04451 491.925 4.64031 498.438 5.56785C504.952 6.4968 511.069 11.1985 512.606 17.5973C512.974 19.1309 512.967 21.0087 511.722 21.9761C510.798 22.6945 509.511 22.6475 508.344 22.5693C504.985 22.3417 500.846 21.2776 497.532 21.6503C494.493 21.9917 492.284 24.8654 490.48 27.123C486.576 32.0068 483.689 38.3032 478.162 41.652Z" fill="#B55232"/>
<path d="M510.961 18.5647C508.822 21.0926 508.08 24.7302 509.054 27.8941C510.029 31.0579 512.69 33.6471 515.878 34.5333C516.64 34.7453 517.496 34.9103 517.968 35.5434C518.291 35.9773 518.359 36.5435 518.402 37.0826C518.628 39.9065 518.461 42.7631 517.906 45.5414C519.233 45.3394 520.173 43.7902 519.739 42.5198C520.906 42.773 521.752 40.8738 520.785 40.1753C522.23 39.8055 522.937 37.7925 522.041 36.6004C523.506 36.3756 524.997 37.2021 525.862 38.4056C526.727 39.6106 527.046 41.1299 527.096 42.6123C527.214 46.173 525.242 50.2459 521.713 50.741C523.536 51.4395 525.379 52.1721 527.141 51.3299C529.922 50.0012 529.881 46.0763 531.382 43.3833C532.459 41.4514 534.384 40.1455 535.692 38.363C537.001 36.5805 537.488 33.7438 535.752 32.3724C536.759 30.9882 536.7 28.9255 535.614 27.6024C534.45 28.9482 532.244 28.0406 530.843 26.9438C526.081 23.2151 522.013 17.879 516.051 16.8647C514.271 16.5602 512.128 17.1848 510.961 18.5647Z" fill="#B55232"/>
<path d="M489.066 41.2865C486.707 40.716 481.55 41.9636 482.92 45.3224C483.175 45.9469 484.009 45.4788 483.936 44.9212C483.664 42.8001 487.162 42.2723 488.633 42.7503C489.572 43.0548 490.019 41.5169 489.066 41.2865Z" fill="#B55232"/>
<path d="M506.185 35.7684C503.516 34.4852 498.517 35.0073 497.68 38.4599C497.552 38.9891 498.264 39.332 498.565 38.8497C500.002 36.5409 502.96 35.6845 505.382 37.0971C506.257 37.6064 507.072 36.1952 506.185 35.7684Z" fill="#B55232"/>
<path d="M504.09 43.2763C501.976 43.7983 502.782 47.0846 504.901 46.5625C507.016 46.0404 506.208 42.7527 504.09 43.2763Z" fill="#B55232"/>
<path d="M490.454 48.3822C488.34 48.9043 489.147 52.1905 491.265 51.6684C493.38 51.1477 492.572 47.8601 490.454 48.3822Z" fill="#B55232"/>
<path d="M498.366 54.576C498.184 52.994 497.653 51.129 496.376 50.3637C495.955 50.1119 495.428 50.4149 495.403 50.8957C495.295 52.9514 496.723 54.8292 495.963 56.9816C495.626 57.9347 494.828 58.895 495.256 59.9605C495.748 61.1882 497.307 61.0829 498.226 60.4172C499.049 59.8211 499.326 58.848 499.35 57.8636C500.117 57.7939 500.793 57.4482 500.918 56.5164C501.11 55.091 499.551 54.4551 498.366 54.576Z" fill="#F48369"/>
<path d="M509.026 54.6318C509.105 54.3246 509.194 53.9845 509.458 53.8096C509.986 53.4596 510.637 54.0386 510.952 54.5892C511.915 56.2749 512.289 58.2893 511.993 60.207C511.653 62.4191 510.312 64.5687 508.239 65.4108C506.954 65.9329 505.411 65.822 504.202 65.1505C503.721 64.8831 502.926 64.3467 502.746 63.782C502.507 63.0294 502.975 62.9455 503.577 62.5173C506.235 60.6281 508.211 57.79 509.026 54.6318Z" fill="#E0E9ED"/>
<path d="M527.527 75.5096C528.374 70.4423 527.3 65.2014 525.324 60.4585C525.023 59.733 524.181 58.8922 523.622 59.4456C523.427 59.6391 523.384 59.9335 523.354 60.2053C522.583 67.1618 522.105 73.2192 515.988 77.541C515.888 77.6107 515.794 77.6762 515.696 77.7445C517.839 80.463 519.796 83.2556 521.557 86.162C524.747 83.5501 526.84 79.6123 527.527 75.5096Z" fill="#E3967F"/>
<path d="M505.434 14.4202C500.682 11.2109 493.392 11.7842 489.99 16.4005C487.513 19.7607 487.466 24.2433 486.869 28.3745C486.594 30.2779 486.155 32.1529 485.611 33.9966C487.243 31.6763 488.768 29.265 490.482 27.1183C492.286 24.8607 494.495 21.987 497.534 21.6456C500.847 21.2729 504.986 22.337 508.346 22.5646C509.286 22.6286 510.295 22.65 511.138 22.2886C510.076 19.1248 508.189 16.2824 505.434 14.4202Z" fill="#993A20"/>
<path d="M531.385 43.3833C532.462 41.4528 534.386 40.1454 535.695 38.3629C536.02 37.9205 536.294 37.4126 536.496 36.8791C535.516 36.9489 534.533 36.9617 533.543 36.8436C525.204 35.8506 519.55 28.2312 512.827 23.1995C511.915 22.5166 510.946 21.8651 509.842 21.5848C509.649 21.5364 509.474 21.5165 509.289 21.481C508.532 23.5238 508.414 25.8085 509.056 27.894C510.03 31.0579 512.69 33.647 515.88 34.5333C516.641 34.7453 517.497 34.9103 517.97 35.5433C518.293 35.9772 518.361 36.5434 518.404 37.0826C518.63 39.9064 518.462 42.763 517.907 45.5413C519.234 45.3393 520.175 43.7901 519.741 42.5197C520.907 42.773 521.754 40.8738 520.786 40.1753C522.232 39.8054 522.939 37.7925 522.043 36.6003C523.508 36.3755 524.999 37.2021 525.864 38.4056C526.729 39.6105 527.047 41.1299 527.097 42.6122C527.215 46.173 525.243 50.2459 521.714 50.7409C523.538 51.4394 525.38 52.1721 527.143 51.3299C529.925 50.0012 529.882 46.0762 531.385 43.3833Z" fill="#993A20"/>
<path d="M642.673 172.517C642.714 155.572 632.696 141.201 621.126 129.55C620.372 128.16 619.636 126.804 618.93 125.486C609.633 108.121 587.705 75.9039 565.043 87.5209C563.204 86.9049 561.303 86.4482 559.326 86.2263C559.787 86.2775 556.485 79.3879 555.826 78.7321C554.01 76.924 552.6 76.1188 550.091 76.2055C544.855 76.3891 537.72 80.4449 532.681 82.0595C532.008 82.2758 531.28 82.5318 530.903 83.1307C530.332 84.0412 530.85 85.2177 531.368 86.158C533.923 90.7943 536.476 95.4305 539.031 100.068C540.699 103.095 542.379 106.141 544.557 108.827C547.026 111.873 550.076 114.385 552.853 117.154C567.863 132.121 574.058 153.599 578.767 174.267C582.81 192.012 586.182 210.449 582.706 228.314C581.379 235.139 579.056 241.854 579.082 248.808C579.086 250.084 579.193 251.43 579.905 252.489C580.91 253.985 582.822 254.518 584.571 254.942C598.146 258.234 611.719 261.526 625.293 264.819C628.012 255.101 625.618 229.295 620.789 201.563C635.475 202.383 642.64 186.159 642.673 172.517Z" fill="#6E9E75"/>
<path d="M590.29 137.274C588.868 151.744 595.703 165.679 597.405 180.119C592.184 179.579 589.314 173.904 587.583 168.949C584.406 159.86 581.823 150.565 579.854 141.142C577.608 130.39 576.31 118.571 581.617 108.953C582.096 108.083 582.748 107.157 583.729 107.015C585.731 106.723 586.462 109.557 586.368 111.577C586.21 115.006 586.051 118.433 585.893 121.861C587.109 119.326 588.326 116.791 589.542 114.256C592.214 108.685 602.372 103.858 599.281 113.131C596.481 121.533 591.206 127.961 590.29 137.274Z" fill="#49855E"/>
<path d="M626.829 237.982C605.247 223.806 590.659 200.811 581.964 176.497C573.269 152.183 569.917 126.341 566.621 100.73C566.186 97.348 565.838 93.5938 567.843 90.8354C569.008 89.2321 570.882 88.1239 571.596 86.2745C572.981 82.6867 568.711 78.9937 564.883 79.3636C545.831 81.2015 554.478 131.378 557.292 143.356C562.187 164.202 573.267 182.983 584.197 201.397C594.618 218.952 606.852 237.955 626.497 243.51C627.225 243.716 628.029 243.897 628.716 243.581C630.918 242.57 628.857 239.313 626.829 237.982Z" fill="#421C16"/>
<path d="M593.407 306.111C602.517 306.15 612.666 305.446 618.914 298.816C623.22 294.245 624.725 287.767 625.795 281.58C626.864 275.403 627.637 268.866 625.395 263.012C623.576 258.261 619.924 254.43 615.947 251.257C601.648 239.855 582.733 235.761 564.448 235.424C552.291 235.201 538.57 237.315 531.433 247.159C522.924 239.618 512.087 234.744 500.8 233.382C487.093 231.729 471.206 236.643 465.508 249.222C460.504 260.271 465.202 272.625 471.924 281.805C479.926 292.733 494.212 293.693 506.823 296.476C535.233 302.745 564.313 305.989 593.407 306.111Z" fill="#824737"/>
<path d="M565.921 268.829C553.74 264.28 542.673 256.542 529.9 254.105C529.442 255.635 529.785 257.38 530.786 258.625C518.723 258.37 506.123 257.979 495.536 252.188C490.471 249.416 485.814 245.4 480.091 244.644C474.306 243.878 468.963 246.674 464.822 250.951C461.012 261.544 465.55 273.098 471.923 281.803C479.925 292.732 494.211 293.692 506.823 296.475C535.233 302.745 564.314 305.989 593.409 306.11C602.518 306.148 612.668 305.444 618.916 298.813C623.222 294.243 624.727 287.764 625.797 281.577C625.988 280.472 626.161 279.352 626.318 278.228C606.126 275.029 585.06 275.978 565.921 268.829Z" fill="#602F24"/>
<path d="M527.435 256.069C527.231 254.723 527.084 253.174 528.004 252.171C528.533 251.595 529.316 251.329 530.075 251.146C536.885 249.513 544.099 253.033 548.781 258.239C553.463 263.446 556.116 270.117 558.677 276.635C561.071 282.729 563.465 288.824 565.859 294.917C566.912 297.597 567.84 301 565.828 303.061C565.083 303.825 564.044 304.238 563.001 304.465C559.253 305.28 555.288 303.888 552.234 301.566C549.179 299.244 546.892 296.078 544.748 292.895C540.839 287.093 537.249 281.075 534.002 274.878C532.378 271.781 530.829 268.64 529.387 265.453C528.041 262.48 527.926 259.304 527.435 256.069Z" fill="#421C16"/>
<path d="M549.231 94.7975C548.012 96.6597 546.794 98.5204 545.577 100.383C545.474 100.541 545.349 100.713 545.163 100.738C544.919 100.772 544.727 100.543 544.588 100.34C541.25 95.4363 536.663 90.2936 534.391 84.8792C536.907 84.7967 549.231 91.5782 549.231 94.7975Z" fill="#49855E"/>
<path d="M415.6 93.7588C432.933 102.563 448.05 116.572 459.027 134C459.606 134.919 460.217 135.888 461.131 136.35C462.451 137.017 464.011 136.454 465.405 135.896C501.513 121.437 539.141 112.227 577.036 108.575C570.155 124.763 570.853 143.487 573.549 160.857C576.245 178.228 580.79 195.297 581.129 213.009C568.56 209.873 555.161 212.898 542.97 218.314C530.78 223.73 519.471 231.455 507.787 238.211C505.522 239.521 503.242 240.794 500.963 242.067C488.326 220.111 471.165 202.925 450.731 190.453C447.12 176.493 441.948 162.492 438.338 148.532C433.132 128.4 429.147 107.902 415.6 93.7588Z" fill="white"/>
<path d="M459.029 134C448.051 116.572 432.934 102.563 415.602 93.7588C429.148 107.902 433.134 128.402 438.339 148.534C441.949 162.494 447.122 176.496 450.731 190.456C471.164 202.927 488.326 220.114 500.963 242.07L461.133 136.351C460.217 135.888 459.608 134.919 459.029 134Z" fill="#E0E1E3"/>
<path d="M548.96 126.949C547.086 127.15 545.125 127.464 543.641 128.626C542.157 129.789 541.389 132.072 542.471 133.615C547.369 134.073 552.266 134.532 557.164 134.99C559.021 135.163 560.941 135.357 562.557 136.284C564.175 137.212 565.404 139.091 564.973 140.905C556.996 141.788 548.823 142.729 541.663 146.352C534.503 149.975 528.456 156.909 528.234 164.931C528.216 165.615 528.255 166.354 528.678 166.893C529.246 167.618 530.29 167.731 531.21 167.698C541.823 167.331 550.239 155.949 560.777 157.249C558.045 164.281 559.147 172.674 563.604 178.763C564.126 179.477 564.772 180.208 565.646 180.349C567.02 180.57 568.115 179.272 568.896 178.12C570.918 175.138 572.941 172.156 574.962 169.175C574.461 166.408 573.981 163.638 573.549 160.86C571.912 150.304 571.023 139.25 572.113 128.569C564.842 126.561 556.234 126.168 548.96 126.949Z" fill="#E0E1E3"/>
<path d="M603.271 181.386C603.085 183.047 603.017 185.01 604.312 186.062C605.085 186.69 606.139 186.799 607.085 187.109C609.903 188.033 611.699 190.697 613.632 192.948C615.564 195.198 618.372 197.319 621.241 196.567C623.788 195.898 625.233 193.258 626.193 190.805C629.158 183.232 630.319 174.959 629.551 166.862C629.207 163.228 628.41 159.476 626.129 156.625C625.102 155.34 623.707 154.24 622.074 154.038C621.028 153.909 619.978 154.156 618.931 154.269C616.626 154.516 614.255 154.098 612.175 153.077C610.576 152.291 608.459 151.229 607.26 152.546C606.839 153.008 606.693 153.651 606.566 154.265C604.711 163.237 604.288 172.302 603.271 181.386Z" fill="#49855E"/>
<path d="M607.404 178.81C607.389 179.659 607.694 180.827 608.539 180.74C608.855 180.708 609.114 180.484 609.341 180.264C611.906 177.778 613.403 174.354 614.148 170.86C614.894 167.366 614.942 163.767 614.989 160.195C614.999 159.443 615 158.654 614.652 157.986C613.881 156.512 611.653 156.357 610.302 157.324C605.463 160.791 607.488 173.915 607.404 178.81Z" fill="#376B47"/>
<path d="M467.192 270.467C465.721 266.237 464.572 261.766 465.085 257.319C465.6 252.872 468.069 248.431 472.157 246.607C476.923 244.483 482.679 246.396 486.638 249.796C490.597 253.195 493.209 257.851 496.041 262.233C500.317 268.845 505.261 275.026 510.772 280.649C512.341 282.251 514.003 283.875 514.818 285.963C515.634 288.053 515.34 290.767 513.515 292.07C512.377 292.882 510.897 292.999 509.499 293.04C500.103 293.312 490.658 291.316 482.149 287.329C474.076 283.542 470.197 279.102 467.192 270.467Z" fill="#421C16"/>
<path d="M530.472 411.523C529.818 405.771 528.381 400.061 529.136 394.217C529.409 392.11 529.966 389.987 529.768 387.908C529.634 386.496 529.156 385.173 528.99 383.768C528.601 380.494 529.897 376.837 528.628 373.906C527.636 371.612 525.308 370.438 523.014 369.92C517.552 368.688 501.997 371.862 502.884 380.998C503.081 383.044 504.184 384.9 503.991 386.977C503.862 388.361 503.168 389.646 502.887 391.015C502.522 392.776 502.858 394.561 502.79 396.345C502.658 399.806 501.029 403.06 499.724 406.303C497.117 412.785 495.806 420.625 499.204 426.177C501.246 429.514 504.695 431.482 508.238 432.671C514.599 434.805 522.685 434.266 527.232 428.386C530.802 423.77 531.127 417.274 530.472 411.523Z" fill="#602F24"/>
<path d="M528.906 374.765C528.992 376.157 529.071 377.55 529.122 378.944C529.229 377.493 529.258 376.073 528.906 374.765Z" fill="#421C16"/>
<path d="M504.999 375.128C504.996 375.153 504.993 375.18 504.99 375.206C504.471 380.394 504.099 385.858 506.255 390.611C508.411 395.363 513.967 398.996 518.875 397.216C523.926 395.385 525.74 389.139 525.713 383.771C525.692 379.492 525.009 375.063 525.754 370.927C524.896 370.461 523.956 370.131 523.016 369.919C518.953 369.003 509.309 370.528 504.999 375.128Z" fill="#421C16"/>
<path d="M527.233 428.385C530.802 423.769 531.125 417.273 530.472 411.522C529.817 405.77 528.381 400.06 529.136 394.216C529.409 392.109 529.965 389.986 529.768 387.907C529.677 386.951 529.432 386.036 529.228 385.108C529.244 394.99 528.43 404.871 526.767 414.61C525.857 419.941 524.386 425.726 519.986 428.876C515.997 431.733 510.56 431.637 505.814 430.368C504.253 429.952 502.778 429.407 501.355 428.775C503.3 430.595 505.74 431.832 508.238 432.67C514.6 434.804 522.686 434.266 527.233 428.385Z" fill="#421C16"/>
<path d="M519.88 405.725C517.716 406.069 515.763 407.171 513.609 407.49C510.349 407.971 507.159 406.319 504.436 404.73C503.867 404.397 502.94 405 503.372 405.668C505.16 408.432 507.94 409.789 511.175 410.314C514.48 410.849 517.348 409.372 520.567 408.988C522.677 408.736 522.015 405.385 519.88 405.725Z" fill="#421C16"/>
<path d="M518.756 401.616C514.325 404.47 509.641 400.212 505.314 399.519C504.511 399.391 504.147 400.33 504.383 400.942C505.398 403.574 509.151 404.918 511.622 405.628C514.537 406.466 517.837 406.806 520.563 405.224C522.826 403.909 520.913 400.228 518.756 401.616Z" fill="#421C16"/>
<path d="M521.325 397.285C519.021 396.773 516.574 397.735 514.141 397.469C511.566 397.187 509.041 396.055 506.434 396.177C505.473 396.223 505.112 397.302 505.854 397.916C509.109 400.6 518.994 403.445 522.028 399.342C522.52 398.682 522.179 397.476 521.325 397.285Z" fill="#421C16"/>
<path d="M472.924 278.082C484.755 312.24 496.586 346.399 508.418 380.559C511.764 383.365 517.686 380.931 519.184 377.174C520.682 373.417 519.264 369.236 517.977 365.354C507.667 334.256 505.889 301.671 498.14 270.057C495.983 261.263 489.358 245.46 475.589 249.055C462.255 252.533 470.165 270.114 472.924 278.082Z" fill="#F8AB94"/>
<path d="M511.575 341.589C509.66 332.832 508.118 324.008 506.642 315.169C504.63 323.168 499.502 330.371 492.601 334.888C495.436 343.073 498.271 351.257 501.105 359.443C502.3 358.969 503.375 358.107 504.267 357.157C507.556 353.654 509.197 348.954 510.685 344.386C510.988 343.457 511.284 342.524 511.575 341.589Z" fill="#E3967F"/>
<path d="M502.66 371.637C502.784 372.443 503.284 373.111 503.733 373.771C505.076 375.743 506.106 377.986 506.53 380.386C506.768 381.731 506.814 383.114 507.137 384.437C508.22 388.875 512.693 392.005 517.002 391.414C521.311 390.824 524.948 386.657 525.244 382.065C525.443 378.981 524.318 376.015 523.778 372.986C523.398 370.861 523.291 368.629 522.388 366.694C521.486 364.759 519.453 363.184 517.478 363.776C517.906 364.901 516.995 366.082 516.131 366.899C513.751 369.151 510.431 371.235 507.573 369.814C506.796 369.427 506.112 368.797 505.265 368.636C503.891 368.375 502.449 370.258 502.66 371.637Z" fill="#E0E9ED"/>
<path d="M677.289 70.3599C676.971 66.4463 676.332 62.5171 674.626 59.2124C672.921 55.9077 670.004 53.2816 666.459 52.8961C661.381 52.3441 656.51 56.2534 651.836 59.2309C645.245 63.4304 637.996 66.0537 630.697 67.3568C628.287 71.6758 625.669 75.8141 624.725 81.136C623.512 87.9617 624.978 94.0447 628.208 99.5701C637.741 99.2941 647.244 99.6839 656.621 100.56C662.78 101.136 670.314 101.316 674.241 95.5171C675.901 93.0645 676.49 90.0244 676.868 87.1053C677.595 81.5002 677.736 75.8696 677.289 70.3599Z" fill="#E0E9ED"/>
<path d="M673.968 69.2005C672.705 64.1915 669.555 59.6861 664.977 58.3987C660.24 66.6597 661.476 77.9608 667.729 83.5587C670.779 82.3211 670.848 77.4714 669.488 74.5011C668.128 71.5293 665.962 68.5446 666.814 65.1162C672.129 70.458 672.696 80.7022 668.072 87.8194C653.594 88.5222 639.117 89.2192 624.64 89.9263C625.196 93.3305 626.432 96.5371 628.208 99.5729C637.74 99.2969 647.243 99.6867 656.62 100.563C659.906 100.87 663.579 101.055 666.891 100.29C667.042 98.3395 668.326 96.1942 667.823 94.3349C671.538 95.0049 673.802 89.3018 674.275 85.0638C674.876 79.7006 675.231 74.2094 673.968 69.2005Z" fill="#B1C0C9"/>
<path d="M554.842 269.623C554.311 263.806 550.853 258.35 545.884 255.491C540.914 252.63 534.571 252.444 529.451 255.009C519.856 293.026 507.205 330.223 492.898 366.65C492.485 367.7 492.068 368.877 492.472 369.932C492.929 371.124 494.24 371.673 495.42 372.097C499.168 373.445 502.917 374.794 506.667 376.141C517.043 337.818 558.456 309.225 554.842 269.623Z" fill="#F8AB94"/>
<path d="M507.87 368.876C504.446 368.973 501.039 367.75 498.359 365.638C496.411 364.105 493.737 358.028 491.57 362.338C490.294 364.877 490.57 368.033 489.065 370.444C488.55 371.269 487.846 371.968 487.365 372.814C486.903 373.626 486.699 374.533 486.682 375.453C486.381 375.622 486.083 375.841 485.8 376.137C481.153 381.018 488.238 386.273 492.35 388.02C496.517 389.79 504.55 388.737 505.142 383.532C505.44 383.35 505.719 383.139 505.946 382.873C506.404 382.333 506.634 381.64 506.853 380.966L510.212 370.636C510.27 370.457 510.329 370.275 510.329 370.087C510.333 369.056 508.897 368.846 507.87 368.876Z" fill="#E0E9ED"/>
<path d="M509.171 384.185C508.498 383.034 507.631 382.272 506.2 382.457C505.563 382.539 505.169 383.248 504.726 383.598C503.352 384.683 502.762 385.781 501.958 386.924C500.07 387.712 498.13 388.37 496.15 388.883C498.211 386.917 499.12 383.832 497.707 380.969C495.709 376.916 490.83 373.728 486.557 372.597C486.537 372.591 486.52 372.592 486.5 372.587C484.84 371.393 482.759 370.764 480.852 371.4C478.77 372.094 477.367 374.144 476.858 376.28C476.418 378.125 477.183 380.243 476.745 381.952C476.428 383.194 475.357 383.946 474.338 384.77C471.951 386.702 469.19 388.158 466.231 388.993C462.822 389.955 459.173 390.117 455.95 391.584C454.066 392.44 452.398 393.717 450.892 395.136C448.709 397.196 446.785 399.671 446.041 402.579C445.201 405.863 445.983 409.462 447.867 412.28C449.75 415.098 452.662 417.151 455.857 418.28C462.475 420.621 469.864 419.071 476.358 416.41C476.771 416.241 477.176 416.057 477.585 415.881C481.834 414.491 486.018 412.119 489.507 410.638C495.326 408.169 510.518 406.012 508.681 396.246C508.65 396.081 507.805 393.705 507.518 393.893C507.785 392.813 508.604 391.459 508.853 390.575C509.398 388.649 510.276 386.079 509.171 384.185Z" fill="#824737"/>
<path d="M508.803 397.125C506.607 398.159 504.766 399.843 502.873 401.385C493.327 409.161 481.155 413.654 468.845 413.945C463.262 414.078 457.597 413.351 452.442 411.203C450.111 410.231 447.896 408.946 445.9 407.387C446.209 409.127 446.883 410.81 447.865 412.279C449.749 415.098 452.661 417.15 455.856 418.28C462.474 420.62 469.863 419.071 476.357 416.409C476.769 416.24 477.175 416.056 477.583 415.88C481.832 414.49 486.016 412.119 489.506 410.638C495.148 408.244 509.593 406.144 508.803 397.125Z" fill="#602F24"/>
<path d="M505.543 381.929C504.065 384.105 501.959 385.877 499.649 387.118C498.823 387.562 497.815 387.841 496.821 388.147C498.39 386.195 498.958 383.498 497.71 380.967C495.711 376.914 490.833 373.726 486.56 372.595C486.54 372.589 486.523 372.591 486.503 372.585C484.843 371.392 482.761 370.763 480.855 371.399C478.772 372.093 477.37 374.143 476.86 376.278C476.454 377.985 477.067 379.926 476.815 381.56C477.074 381.492 477.316 381.377 477.529 381.195C479.087 379.863 477.353 376.681 479.027 375.497C481.677 377.51 485.641 376.271 488.638 377.717C491.203 378.953 492.52 381.993 492.446 384.839C492.374 387.685 491.153 390.372 489.773 392.861C489.485 393.382 489.183 394.01 489.45 394.542C489.953 395.539 491.471 394.872 492.267 394.089C492.903 393.466 493.503 392.809 494.107 392.153C496.297 393.62 499.884 392.082 501.955 391.06C505.072 389.521 507.737 387.211 509.73 384.374C511.516 381.828 507.294 379.353 505.543 381.929Z" fill="#602F24"/>
<path d="M474.627 397.765C473.858 395.465 472.51 392.989 470.936 391.155C469.374 389.339 466.238 386.881 463.788 388.363C463.059 388.804 462.841 389.916 463.51 390.527C464.278 391.228 465.188 391.471 466.063 391.999C467.014 392.572 467.874 393.392 468.58 394.245C469.325 395.147 469.911 396.253 470.446 397.293C470.81 398.001 471.02 398.837 471.66 399.351C472.119 399.719 472.755 400.044 473.365 399.802C473.411 399.784 473.458 399.765 473.503 399.748C474.276 399.441 474.927 398.664 474.627 397.765Z" fill="#602F24"/>
<path d="M486.607 392.264C486.207 389.423 484.365 386.996 482.264 385.144C480.353 383.461 477.81 381.568 475.154 381.67C474.144 381.71 473.424 383.044 474.273 383.795C477.061 386.258 481.622 388.703 482.11 392.873C482.493 396.148 487.074 395.582 486.607 392.264Z" fill="#602F24"/>
<path d="M480.184 394.879C479.219 390.594 474.709 383.873 469.57 384.906C468.501 385.121 468.308 386.498 468.962 387.209C470.281 388.645 472.123 389.35 473.344 390.927C474.557 392.494 475.106 394.27 475.811 396.084C476.853 398.762 480.837 397.781 480.184 394.879Z" fill="#602F24"/>
<path d="M614.603 159.345C614.946 159.305 613.952 158.184 614.295 158.144C604.729 153.545 595.221 150.204 585.139 146.893C583.966 143.547 583.207 140.563 580.182 138.714C577.839 137.282 575.434 135.951 572.974 134.728C571.695 134.092 570.372 133.476 568.952 133.317C567.309 133.13 565.658 133.57 564.116 134.167C563.925 134.241 563.744 134.338 563.556 134.421C561.295 135.281 559.141 136.472 557.074 137.745C555.869 138.486 554.675 139.265 553.652 140.241C552.629 141.216 551.777 142.411 551.39 143.771C551.18 144.513 551.164 145.434 551.763 145.92C552.157 146.238 552.703 146.272 553.21 146.281C554.894 146.308 556.58 146.205 558.249 145.976C556.707 146.9 555.389 148.098 554.294 149.522C553.944 149.975 553.611 150.483 553.578 151.055C553.523 151.995 554.283 152.779 555.056 153.317C556.893 154.592 559.114 155.228 561.337 155.451C563.561 155.674 565.806 155.502 568.029 155.283C570.493 155.04 572.742 156.753 575.155 157.349C577.125 158.074 579.354 158.1 581.259 157.201C592.102 162.611 602.88 168.913 612.387 176.427C614.771 171.112 615.552 165.092 614.603 159.345Z" fill="#F8AB94"/>
<path d="M506.57 48.4443C506.44 48.4443 506.44 48.6456 506.57 48.6456C506.699 48.6456 506.699 48.4443 506.57 48.4443Z" fill="#F48369"/>
<path d="M508.103 46.2379C507.32 46.5097 506.679 47.0517 505.962 47.4543C504.987 48.0005 505.842 49.3605 506.82 48.9224C507.491 48.6208 508.173 48.2794 508.81 47.9123C509.688 47.4087 509.107 45.8894 508.103 46.2379Z" fill="#F48369"/>
<path d="M491.462 53.2815C491.111 52.7523 490.622 52.5916 490.017 52.4649C487.949 52.0311 487.936 55.377 490.017 54.9403C490.622 54.8137 491.111 54.6515 491.462 54.1223C491.617 53.889 491.617 53.5148 491.462 53.2815Z" fill="#F48369"/>
<path d="M431.618 139.327C429.165 135.015 428.428 129.969 427.736 125.057C427.598 124.08 427.508 122.944 428.205 122.245C429.061 121.384 430.504 121.74 431.631 122.192C435.506 123.75 439.333 125.915 441.654 129.386C442.084 130.029 442.43 130.965 441.875 131.504C441.619 131.752 441.243 131.824 440.887 131.858C439.638 131.981 438.36 131.777 437.209 131.275C439.771 133.098 441.977 135.321 443.879 137.825C444.548 138.705 445.182 139.649 445.447 140.723C445.711 141.797 445.544 143.034 444.774 143.828C444.007 144.618 442.819 144.823 441.717 144.825C437.852 144.84 433.53 142.689 431.618 139.327Z" fill="#F8AB94"/>
<path d="M146.166 285.668C136.36 273.424 123.015 263.987 108.12 258.827C105.461 257.906 102.556 257.672 99.8808 258.547C89.7555 261.858 93.8237 275.99 102.158 280.364C109.883 284.419 119.225 283.777 127.569 286.36C114.578 289.031 103.01 297.924 97.3377 309.84C96.3153 311.987 95.9931 314.45 96.6818 316.723C98.9873 324.345 109.619 322.72 114.936 317.703C119.927 312.993 123.164 306.256 129.316 303.176C120.156 313.089 116.186 327.509 119.165 340.647C119.603 342.576 120.572 344.402 122.148 345.62C127.189 349.516 133.385 344.441 136.348 339.377C140.942 331.524 143.266 322.382 142.972 313.309C143.892 322.792 148.611 331.793 155.674 338.233C159.882 342.073 166.841 339.937 167.945 334.377C171.638 315.799 164.434 295.103 149.193 283.477C148.084 282.632 146.599 281.802 145.374 282.467C144.146 283.133 145.163 285.665 146.263 284.81" fill="#314B79"/>
<path d="M711.298 571.68V218.862C704.36 216.845 696.958 217.095 691.217 223.311C687.59 227.236 685.853 232.513 685.833 237.858C685.806 245.159 688.425 251.693 691.971 257.821C679.235 241.536 659.917 230.422 639.435 227.614C633.012 226.733 627.961 233.033 630.108 239.15C636.252 256.663 648.443 272.05 664.091 282.041C655.842 281.139 646.337 285.97 643.591 294.199C641.487 300.506 642.826 307.191 646.226 312.431C634.382 306.269 618.627 304.316 606.408 305.248C595.74 306.062 583.705 310.486 580.438 320.675C578.238 327.532 584.015 335.202 590.171 337.033C584.546 340.171 580.558 346.214 581.728 352.495C583.431 361.635 598.179 365.32 602.55 357.114C597.318 365.839 595.043 376.302 596.181 386.413C588.149 378.335 579.368 369.821 566.877 370.594C559.981 371.02 554.051 375.876 553.031 382.71C551.048 395.987 568.926 402.165 582.354 403.175C568.892 403.897 556.401 412.939 550.859 425.134C548.741 429.795 551.286 435.315 556.239 436.605C563.698 438.548 572.421 436.201 577.154 430.005C575.019 436.973 578.588 445.232 585.125 448.452C570.064 444.701 553.511 447.391 540.411 455.716C536.957 457.911 533.52 460.752 533.674 465.465C533.822 470.04 537.206 473.827 541.594 475.135C549.624 477.529 557.059 473.247 563.699 469.007C554.319 474.615 548.415 485.248 547.78 496.099C547.352 503.421 554.652 508.809 561.447 506.049C568.267 503.278 573.983 497.651 576.285 490.631C575.043 501.361 576.86 512.428 581.469 522.197C583.411 526.312 586.235 530.557 591.464 530.538C595.548 530.522 599.064 527.779 600.665 524.023C603.787 516.707 600.711 509.287 597.716 502.471C609.221 504.779 621.754 501.155 630.253 493.064C629.274 500.088 629.415 507.264 630.645 514.249C631.601 519.677 636.835 523.305 642.254 522.294C648.613 521.106 654.736 518.64 660.116 515.047C647.971 527.409 641.135 544.823 641.629 562.145C641.787 567.7 643.124 574.031 649.012 575.964C652.641 577.156 656.606 576.015 659.447 573.46C665.25 568.241 665.926 560.492 666.448 553.207C667.121 561.293 670.286 569.124 675.283 575.509C679.021 580.284 686.529 579.848 689.495 574.558C693.002 568.306 694.803 561.088 694.5 553.922C695.685 562.966 702.667 569.042 711.298 571.68Z" fill="#314B79"/>
<path d="M710.57 289.901C701.828 280.722 689.777 275.654 673.568 276.662C670.336 276.863 666.916 277.502 664.562 279.724C660.147 283.892 661.842 291.779 666.391 295.801C670.94 299.821 677.261 301.004 683.244 302.031C657.134 302.31 631.641 317.074 618.404 339.581C617.048 341.887 615.818 344.836 617.233 347.105C618.43 349.021 620.965 349.512 623.215 349.716C631.579 350.474 640.074 349.751 648.189 347.594C640.21 351.047 635.192 360.297 636.65 368.869C645.317 369.879 654.337 367.458 661.335 362.244C655.262 371.467 653.979 383.67 658.001 393.955C649.291 387.914 639.926 382.226 629.452 380.592C618.979 378.957 607.114 382.24 601.215 391.046C599.684 393.331 598.581 395.981 598.543 398.731C598.452 405.12 604.222 410.382 610.42 411.93C615.765 413.264 621.342 412.496 626.79 411.438C614.822 414.377 604.916 424.839 602.936 437.049C601.946 443.152 603.125 450.135 607.932 454.026C613.873 458.834 622.878 457.069 629.401 453.086C635.922 449.101 641.201 443.254 647.933 439.636C644.008 448.183 641.739 457.487 641.292 466.882C641.147 469.932 641.315 473.318 643.427 475.523C646.633 478.87 652.307 477.57 656.246 475.127C663.569 470.589 668.829 462.856 670.363 454.379C673.13 463.555 671.71 473.618 674.643 482.741C677.575 491.864 688.414 499.902 696.411 494.618C698.873 492.992 700.522 490.417 702.041 487.887C705.258 482.532 708.636 474.961 711.898 465.866L710.57 289.901Z" fill="#F7F4EF"/>
</svg>
