<svg width="610" height="544" viewBox="0 0 610 544" fill="none" xmlns="http://www.w3.org/2000/svg">
<path fill-rule="evenodd" clip-rule="evenodd" d="M546.584 276.7C551.357 276.7 555.227 280.569 555.227 285.344C555.227 290.118 551.358 293.988 546.584 293.988C541.809 293.988 537.94 290.118 537.94 285.344C537.941 280.569 541.81 276.7 546.584 276.7ZM48.0211 227.347C53.8273 226.517 59.2086 230.55 60.0399 236.358C60.8698 242.164 56.837 247.545 51.0294 248.376C45.2217 249.208 39.8418 245.174 39.0105 239.366C38.1807 233.56 42.2149 228.178 48.0211 227.347ZM281.919 30.2528C327.879 30.2528 365.915 64.165 372.377 108.331C377.945 111.339 383.285 114.71 388.369 118.415C390.009 118.257 391.657 118.132 393.313 118.034C392.592 114.903 392.213 111.643 392.213 108.296C392.213 84.3901 411.591 65.0105 435.498 65.0105C459.404 65.0105 478.783 84.3901 478.783 108.296C478.783 112.125 478.283 115.837 477.351 119.372C499.567 124.489 517.223 141.533 523.217 163.401C525.905 162.812 528.697 162.5 531.564 162.5C553.048 162.5 570.465 179.917 570.465 201.4C570.465 221.872 554.649 238.65 534.572 240.186C534.884 243.924 535.055 247.703 535.055 251.523C535.055 325.382 475.18 385.257 401.32 385.257C378.206 385.257 356.462 379.393 337.493 369.072C327.266 371.439 316.614 372.698 305.668 372.698C276.696 372.698 249.772 363.931 227.4 348.908C211.07 359.631 191.536 365.875 170.541 365.875C113.251 365.875 66.8067 319.431 66.8067 262.14C66.8067 251.788 68.33 241.794 71.1522 232.36C59.5554 225.405 51.7924 212.712 51.7924 198.205C51.7924 176.225 69.6118 158.406 91.5918 158.406C103.109 158.406 113.481 163.3 120.748 171.119C135.529 163.017 152.496 158.406 170.54 158.406C175.547 158.406 180.471 158.768 185.29 159.454C187.951 155.054 190.849 150.812 193.962 146.744C191.698 138.78 190.486 130.375 190.486 121.687C190.486 71.189 231.421 30.2528 281.919 30.2528ZM66.9986 121.097C76.2379 119.776 84.7966 126.195 86.1196 135.432C87.4411 144.67 81.0238 153.23 71.7845 154.552C62.5466 155.874 53.9865 149.456 52.6635 140.218C51.342 130.98 57.7592 122.419 66.9986 121.097ZM202.492 40.197C208.644 51.8677 204.169 66.3136 192.499 72.4651C180.829 78.6152 166.382 74.1404 160.232 62.4712C154.08 50.8005 158.556 36.3546 170.226 30.2031C181.895 24.0516 196.342 28.5263 202.492 40.197ZM239.953 18.6162C243.819 25.9514 241.007 35.0331 233.671 38.8982C226.335 42.7647 217.254 39.9526 213.387 32.6159C209.521 25.2807 212.334 16.1991 219.669 12.334C227.006 8.46745 236.086 11.281 239.953 18.6162ZM192.868 0.00823102C198.73 -0.22055 203.666 4.34796 203.894 10.2082C204.122 16.0698 199.555 21.0064 193.694 21.2337C187.832 21.4625 182.895 16.8954 182.668 11.0338C182.439 5.17357 187.006 0.237012 192.868 0.00823102ZM504.536 81.9687C514.337 81.9687 522.28 89.9135 522.28 99.7128C522.28 109.512 514.335 117.457 504.536 117.457C494.735 117.457 486.792 109.513 486.792 99.7128C486.792 89.9135 494.737 81.9687 504.536 81.9687ZM555.227 244.128C561.723 244.128 566.989 249.394 566.989 255.889C566.989 262.385 561.723 267.651 555.227 267.651C548.732 267.651 543.467 262.385 543.467 255.889C543.467 249.394 548.732 244.128 555.227 244.128Z" fill="#314B79"/>
<path fill-rule="evenodd" clip-rule="evenodd" d="M349.314 342.444L229.329 365.198L105.453 388.311C43.1221 399.94 78.1299 403.547 106.179 413.504C117.625 417.567 121.159 417.095 112.321 422.922C94.5637 434.626 114.097 440.466 126.452 446.252L296.215 528.582C313.564 536.607 316.625 542.293 334.913 537.974L406.195 521.135L457.099 541.304C462.248 543.507 462.864 545.731 475.683 540.844L522.656 522.935L565.841 500.792C576.313 495.423 577.883 496.534 567.449 493.456C546.721 487.342 525.992 481.227 505.264 475.111L575.222 454.373C584.891 451.507 600.142 448.76 585.323 443.775L543.349 429.656L349.314 342.444Z" fill="#CAD2E8"/>
<path d="M258.749 70.2753C239.62 61.8132 221.916 73.8178 220.709 88.5636C197.625 89.3153 204.926 111.803 220.962 110.831C225.886 120.312 252.551 129.707 267.511 108.507C278.162 121.99 295.677 117.789 301.595 111.392C302.168 111.462 302.756 111.497 303.355 111.497C309.563 111.497 314.596 107.636 314.596 102.873C314.596 98.1099 309.563 94.2476 303.355 94.2476C301.239 94.2476 299.261 94.6966 297.571 95.4767C296.399 89.2016 291.538 84.1414 285.197 82.4035C290.776 66.9644 267.859 55.6972 258.749 70.2753Z" fill="#73BDC7"/>
<path d="M62.0153 207.052C72.3886 204.5 83.3332 208.264 89.9408 216.722C91.8279 216.948 93.6397 217.41 95.352 218.074C95.8337 213.569 99.156 209.69 103.83 208.712C109.632 207.5 115.317 211.22 116.529 217.022C116.955 219.064 116.771 221.09 116.1 222.914C124.139 224.481 130.449 230.878 131.887 238.962C135.414 237.256 139.542 237.145 142.866 238.513C151.374 242.016 150.939 253.268 143.049 256.414C139.265 257.923 134.368 257.431 130.394 255.435C125.756 261.813 115.844 263.592 108.161 261.987C92.7075 270.449 63.9536 270.625 48.8498 259.827C40.0765 264.805 28.8605 262.386 22.898 254.185C20.5519 256.593 16.9071 258.139 12.8146 258.139C5.73658 258.139 0 253.518 0 247.817C0 242.115 5.73658 237.494 12.8146 237.494C15.226 237.494 17.4812 238.032 19.408 238.965C20.7438 231.452 26.2871 225.396 33.5129 223.318C26.3169 207.754 45.0102 192.493 62.0153 207.052Z" fill="#A1E0E8"/>
<path d="M45.7875 255.103C47.0721 255.103 48.3211 255.247 49.5247 255.518C52.9962 247.15 61.2451 241.264 70.8667 241.264C75.6541 241.264 80.1004 242.719 83.7879 245.213C86.7564 241.904 91.0648 239.819 95.8621 239.819C104.814 239.819 112.071 247.076 112.071 256.029C112.071 257.41 111.898 258.753 111.573 260.033C119.249 261.431 125.011 267.313 125.011 274.359C125.011 282.448 117.422 289.003 108.06 289.003C106.829 289.003 105.629 288.889 104.472 288.673C98.5407 290.464 90.5504 291.561 81.763 291.561C70.2301 291.561 60.0757 289.672 54.1387 286.806C51.6733 288.204 48.8242 289.003 45.7889 289.003C42.1455 289.003 38.7706 287.853 36.0067 285.895C34.6213 286.41 33.0795 286.697 31.4539 286.697C25.4359 286.697 20.5576 282.768 20.5576 277.919C20.5576 273.736 24.1897 270.236 29.0538 269.355C30.3441 261.278 37.3439 255.103 45.7875 255.103Z" fill="#73BDC7"/>
<path d="M533.198 131.483C534.249 131.483 535.273 131.6 536.254 131.822C539.095 124.974 545.845 120.158 553.72 120.158C556.192 120.158 558.553 120.634 560.717 121.497C563.474 119.044 567.106 117.552 571.086 117.552C579.214 117.552 585.889 123.766 586.622 131.702C592.313 132.724 596.799 137.216 597.811 142.91C613.413 137.037 615.401 162.08 595.745 158.254C593.865 162.264 587.743 164.694 581.665 163.682C569.84 171.229 549.7 167.627 540.029 159.629C535.379 162.267 527.717 162.028 523.346 158.933C510.018 162.636 505.068 146.604 519.499 143.147C520.559 136.535 526.289 131.483 533.198 131.483Z" fill="#73BDC7"/>
<path d="M463.676 143.632C469.119 143.632 474.202 145.173 478.512 147.841C484.54 137.567 495.699 130.668 508.472 130.668C510.602 130.668 512.685 130.86 514.709 131.226C516.262 127.135 519.804 123.898 524.406 122.936C531.209 121.515 537.885 125.582 539.833 132.127C546.663 131.492 553.029 136.07 554.464 142.945C555.274 146.823 554.355 150.658 552.229 153.654C554.326 155.726 556.094 158.129 557.448 160.78C557.646 160.775 557.843 160.772 558.044 160.772C568.569 160.772 577.265 167.809 578.623 176.931C587.637 177.309 594.749 181.666 594.749 186.986C594.749 192.555 586.961 197.07 577.352 197.07C574.06 197.07 570.982 196.54 568.356 195.619C565.318 197.183 561.796 198.079 558.045 198.079C554.747 198.079 551.626 197.385 548.857 196.156C530.203 209.13 461.182 208.08 444.466 192.547C442.05 193.505 439.33 194.046 436.454 194.046C426.432 194.046 418.307 187.499 418.307 179.427C418.307 171.385 426.368 164.86 436.336 164.809C439.468 152.629 450.521 143.632 463.676 143.632Z" fill="#A1E0E8"/>
<path fill-rule="evenodd" clip-rule="evenodd" d="M278.466 147.744L105.844 138.813C94.8483 139.84 91.3299 134.922 92.8589 150.731L115.284 382.816C117.601 396.213 115 395.082 128.357 393.763C184.853 388.189 247.461 386.729 324.341 381.055C381.446 372.409 428.91 366.81 487.018 366.699C501.331 366.671 503.559 365.001 500.014 350.779L442.09 118.358C442.09 118.358 278.474 146.472 278.466 147.744Z" fill="#78213D"/>
<path fill-rule="evenodd" clip-rule="evenodd" d="M104.934 129.882L96.6299 144.946L123.163 389.296C142.004 388.373 247.142 378.019 324.34 381.057C302.738 367.86 241.599 357.381 136.269 371.739L104.934 129.882Z" fill="#828C8F"/>
<path fill-rule="evenodd" clip-rule="evenodd" d="M324.341 381.058C292.842 370.439 216.759 366.851 134.821 374.671L104.935 129.882C125.847 121.608 222.954 110.477 278.277 147.259C289.602 220.81 313.017 307.509 324.341 381.058Z" fill="#ABBABD"/>
<path fill-rule="evenodd" clip-rule="evenodd" d="M324.34 381.058C296.574 365.085 220.34 358.207 139.871 361.477L107.882 117.408C146.04 106.599 237.302 107.318 278.275 147.261L324.34 381.058Z" fill="#CFDEE0"/>
<path fill-rule="evenodd" clip-rule="evenodd" d="M503.837 344.796L496.236 360.252C454.044 356.587 348.06 374.55 324.341 381.057C344.83 354.743 457.223 336.179 503.837 344.796Z" fill="#828C8F"/>
<path fill-rule="evenodd" clip-rule="evenodd" d="M324.341 381.058C356.791 356.991 454.006 339.926 503.838 344.796L442.447 104.716C387.791 102.887 307.916 112.938 278.276 147.261L324.341 381.058Z" fill="#99A6AB"/>
<path fill-rule="evenodd" clip-rule="evenodd" d="M324.341 381.058C357.582 350.372 435.678 331.937 507.612 332.954L447.132 92.7015C392.725 84.6288 301.878 110.892 278.276 147.261L324.341 381.058Z" fill="#C7D4D9"/>
<path fill-rule="evenodd" clip-rule="evenodd" d="M324.341 381.058C295.038 353.869 224.2 346.548 148.397 345.941L112.657 102.906C168.915 93.8852 238.787 102.987 278.278 147.261L324.341 381.058Z" fill="#E8F7FC"/>
<path fill-rule="evenodd" clip-rule="evenodd" d="M324.341 381.058C352.086 351.683 420.005 330.637 496.85 328.255L437.171 83.0302C374.377 78.2613 303.877 107.227 278.277 147.261L324.341 381.058Z" fill="#D6E5EB"/>
<path fill-rule="evenodd" clip-rule="evenodd" d="M575.697 387.799C540.739 381.972 363.219 322.496 354.731 322.496C354.731 319.833 184.612 357.346 162.515 361.924C130.235 368.616 123.289 409.606 159.955 425.29L349.802 506.498C324.974 484.379 331.025 456.94 350.589 451.412L575.697 387.799Z" fill="#D17A2E"/>
<path fill-rule="evenodd" clip-rule="evenodd" d="M263.443 356.453C269.187 361.501 268.516 362.683 263.023 362.557C252.743 362.319 224.293 368.445 224.603 382.515C224.654 384.844 223.564 386.849 218.587 387.562C210.629 388.702 193.299 389.563 211.224 401.081C214.98 403.494 241.758 413.519 243.808 406.774C245.752 400.378 257.67 379.373 275.144 391.275C284.486 397.64 298.075 401.691 310.416 404.574C311.188 405.541 312.116 406.709 313.218 408.122C315.216 410.685 313.203 409.563 310.264 408.617C292.172 402.795 299.274 406.638 306.487 412.863C307.064 413.362 314.247 417.187 301.773 416.283C282.664 414.901 297.483 420.83 305.13 424.632C313.352 428.72 307.581 427.975 301.781 427.442C294.508 426.777 287.185 426.449 307.334 436.407C311.067 438.252 316.447 439.495 308.402 439.427C295.927 439.321 303.602 444.76 313.893 446.795C326.435 449.276 356.869 452.141 364.185 438.604C373.101 441.228 381.175 445.522 391.049 445.522C404.62 445.522 406.335 431.343 405.018 430.844C393.351 426.424 360.849 420.579 391.049 415.871C403.334 413.957 409.652 408.651 417.667 405.427C421.285 403.972 422.313 404.641 425.987 405.764C431.222 407.362 439.405 410.233 447.318 412.165C473.952 418.671 479.968 409.602 470.145 401.486C459.533 392.72 320.07 358.301 273.027 350.042C266.455 348.888 255.358 349.35 263.443 356.453Z" fill="#B86114"/>
<path fill-rule="evenodd" clip-rule="evenodd" d="M571.627 391.745C569.717 410.817 571.894 427.164 576.555 441.853C505.638 462.936 434.72 484.019 363.803 505.104C363.803 505.104 342.445 510.032 336.694 484.568C330.945 459.104 354.766 450.067 354.766 450.067L571.627 391.745Z" fill="#C7D4D9"/>
<path fill-rule="evenodd" clip-rule="evenodd" d="M566.662 396.425L356.394 453.151C326.26 461.281 337.621 509.187 368.9 499.79L569.635 439.484C588.193 433.909 588.672 441.384 571.592 446.535L371.37 506.919C328.737 519.776 315.912 457.066 354.731 446.535L566.663 389.04C581.604 384.984 581.321 392.47 566.662 396.425Z" fill="#A85912"/>
<path fill-rule="evenodd" clip-rule="evenodd" d="M165.341 374.402L347.737 452.412C330.494 459.695 326.224 485.493 349.801 506.497L159.954 425.288C138.145 415.958 131.378 392.524 145.335 376.257C152.717 367.65 156.292 370.536 165.341 374.402Z" fill="#A85912"/>
<path fill-rule="evenodd" clip-rule="evenodd" d="M571.185 397.203C571.135 398.013 571.092 398.818 571.058 399.616L473.602 425.288L571.185 397.203ZM570.942 404.054C570.933 404.909 570.933 405.759 570.942 406.605L503.262 423.642L570.942 404.054ZM571.106 411.915C571.152 412.783 571.206 413.646 571.27 414.504L530.608 423.917L571.106 411.915ZM571.837 420.285C571.926 421.019 572.023 421.75 572.127 422.474L494.681 441.797L571.837 420.285ZM573.025 427.901C573.16 428.619 573.303 429.332 573.451 430.043L530.042 440.201L573.025 427.901ZM574.2 433.391C574.37 434.103 574.545 434.809 574.728 435.512L502.674 454.546L574.2 433.391Z" fill="#828C8F"/>
<path fill-rule="evenodd" clip-rule="evenodd" d="M415.774 509.912C413.585 510.561 412.652 512.047 417.745 514.183C422.838 516.319 465.388 533.405 467.524 534.226C469.659 535.048 470.496 535.255 473.603 534.226L523.217 517.798C523.217 517.798 563.649 495.528 565.767 494.47C567.738 493.483 567.082 492.006 564.29 491.676C561.496 491.348 512.703 478.861 512.703 478.861L469.988 493.812L415.774 509.912Z" fill="#A85912"/>
<path fill-rule="evenodd" clip-rule="evenodd" d="M505.697 473.96L564.841 488.335V493.263L522.536 516.264L470.786 533.104L416.571 511.746L415.339 505.174L488.857 497.371C488.857 497.371 506.519 474.782 505.697 473.96Z" fill="#828C8F"/>
<path fill-rule="evenodd" clip-rule="evenodd" d="M520.637 512.414C533.287 501.974 548.457 492.068 565.461 487.48L502.219 467.186C487.91 470.976 475.574 476.704 464.524 491.519L520.637 512.414Z" fill="#ABBABD"/>
<path fill-rule="evenodd" clip-rule="evenodd" d="M520.637 512.414C535.599 496.098 545.457 488.072 564.174 479.147L499.28 460.664C483.7 467.338 472.572 477.901 464.523 491.52L520.637 512.414Z" fill="#C7D4D9"/>
<path fill-rule="evenodd" clip-rule="evenodd" d="M520.637 512.414C503.463 514.709 486.883 518.881 471.351 526.378L415.49 505.009C429.739 494.109 450.204 490.657 464.52 491.507C483.225 498.476 501.93 505.446 520.637 512.414Z" fill="#ABBABD"/>
<path fill-rule="evenodd" clip-rule="evenodd" d="M520.637 512.414L464.523 491.52C471.023 471.464 487.39 457.636 496.816 454.504L564.174 471.344C564.174 471.344 541.172 479.558 520.637 512.414Z" fill="#D6E5EB"/>
<path fill-rule="evenodd" clip-rule="evenodd" d="M520.637 512.414C512.361 510.778 492.227 513.009 468.784 520.386L413.749 497.386C427.955 492.212 441.75 488.403 464.524 491.52L520.637 512.414Z" fill="#CFDEE0"/>
<path fill-rule="evenodd" clip-rule="evenodd" d="M520.637 512.414C510.154 508.988 494.24 505.87 467.753 512.138L408.101 487.771C420.851 485.354 447.343 483.97 464.524 491.52C483.227 498.485 501.931 505.45 520.637 512.414Z" fill="#E8F7FC"/>
</svg>
