<svg width="710" height="745" viewBox="0 0 710 745" fill="none" xmlns="http://www.w3.org/2000/svg">
<path d="M358.04 95.5486V541.745L365.646 531.393L364.326 90.8516L358.04 95.5486Z" fill="#314B79"/>
<path d="M358.04 95.5486H56.9736V541.745H358.04V95.5486Z" fill="#E286B8"/>
<path opacity="0.5" d="M358.04 95.5486H56.9736V541.745H358.04V95.5486Z" fill="#314B79"/>
<path d="M345.466 105.311V569.395C345.466 569.395 320.44 575.251 310.251 625.447L13.6641 133.519C13.6641 133.519 21.6906 94.9944 59.7669 95.8871C87.8081 96.5446 345.466 105.311 345.466 105.311Z" fill="white"/>
<path opacity="0.15" d="M345.466 105.311V569.395C345.466 569.395 320.44 575.251 310.251 625.447L13.6641 133.519C13.6641 133.519 21.6906 94.9944 59.7669 95.8871C87.8081 96.5446 345.466 105.311 345.466 105.311Z" fill="#B8BBBC"/>
<g opacity="0.16">
<path d="M295.23 161.326C283.842 188.539 278.603 218.748 270.199 247.475C261.362 277.682 249.006 306.273 235.168 333.655C220.243 363.188 203.531 391.419 185.238 418.096L310.251 625.447C320.44 575.251 345.467 569.395 345.467 569.395V105.311C345.467 105.311 345.386 105.305 345.243 105.296C322.991 113.146 305.75 136.185 295.23 161.326Z" fill="#B8BBBC"/>
</g>
<g opacity="0.05">
<path d="M342.75 292.317C340.888 294.297 338.974 296.313 336.661 297.417C331.238 300 325.172 297.006 319.955 293.874C314.737 290.743 308.963 287.325 303.323 289.122C284.569 295.095 275.322 325.01 268.883 346.933C258.213 383.266 259.76 423.099 252.199 460.534C248.989 476.43 244.176 491.661 238.563 506.543L308.493 622.53C318.682 572.334 345.468 569.397 345.468 569.397V289.429C344.561 290.391 343.654 291.354 342.75 292.317Z" fill="#B8BBBC"/>
</g>
<path d="M308.489 622.528L310.251 133.519H13.6641V608.716L308.489 622.528Z" fill="white"/>
<path d="M13.6641 124.284C110.426 123.899 218.436 125.072 315.125 127.699C218.414 128.134 110.381 126.86 13.6641 124.284Z" fill="#B8BBBC"/>
<path d="M13.6641 117.139C113.726 116.729 225.419 117.902 325.407 120.554C225.398 121.016 113.681 119.741 13.6641 117.139Z" fill="#B8BBBC"/>
<path d="M21.1191 109.995C120.445 109.553 230.849 110.75 330.14 113.38C230.816 113.834 120.412 112.612 21.1191 109.995Z" fill="#B8BBBC"/>
<path d="M23.6953 102.85C124.995 102.453 238.071 103.641 339.296 106.307C238.049 106.757 124.949 105.466 23.6953 102.85Z" fill="#B8BBBC"/>
<g opacity="0.5">
<path d="M317.396 130.508C318.891 280.623 318.904 449.036 317.396 599.15C315.888 449.034 315.9 280.623 317.396 130.508Z" fill="#B8BBBC"/>
</g>
<g opacity="0.5">
<path d="M324.38 119.604C325.875 269.72 325.888 438.13 324.38 588.246C322.872 438.13 322.885 269.72 324.38 119.604Z" fill="#B8BBBC"/>
</g>
<g opacity="0.5">
<path d="M331.83 111.578C333.325 261.693 333.338 430.104 331.83 580.219C330.322 430.104 330.335 261.693 331.83 111.578Z" fill="#B8BBBC"/>
</g>
<g opacity="0.5">
<path d="M339.296 109.995C340.791 260.11 340.804 428.521 339.296 578.636C337.788 428.521 337.801 260.11 339.296 109.995Z" fill="#B8BBBC"/>
</g>
<g opacity="0.5">
<path d="M234.792 162.736C234.792 162.74 234.792 162.746 234.792 162.751C234.659 162.742 234.659 162.728 234.792 162.721C234.792 162.725 234.792 162.73 234.792 162.736Z" fill="#B8BBBC"/>
<path d="M252.735 162.736C252.735 162.731 252.735 162.727 252.735 162.722C252.86 162.73 252.86 162.743 252.735 162.751C252.735 162.745 252.735 162.74 252.735 162.736Z" fill="#B8BBBC"/>
<path d="M234.791 162.721C239.617 162.418 243.499 156.682 243.749 149.512C243.999 156.695 247.895 162.437 252.733 162.722C252.733 162.727 252.733 162.731 252.733 162.736C252.733 162.74 252.733 162.745 252.733 162.749C247.895 163.034 243.998 168.776 243.749 175.959C243.499 168.79 239.617 163.053 234.791 162.751C234.791 162.746 234.791 162.74 234.791 162.736C234.791 162.73 234.791 162.725 234.791 162.721Z" fill="#B8BBBC"/>
<path d="M284.126 177.315C284.126 177.319 284.126 177.325 284.126 177.33C283.993 177.321 283.993 177.307 284.126 177.3C284.126 177.304 284.126 177.309 284.126 177.315Z" fill="#B8BBBC"/>
<path d="M302.069 177.315C302.069 177.31 302.069 177.306 302.069 177.301C302.194 177.309 302.194 177.322 302.069 177.33C302.069 177.324 302.069 177.319 302.069 177.315Z" fill="#B8BBBC"/>
<path d="M284.126 177.3C288.952 176.997 292.834 171.261 293.084 164.091C293.334 171.274 297.23 177.017 302.068 177.301C302.068 177.306 302.068 177.31 302.068 177.315C302.068 177.319 302.068 177.324 302.068 177.328C297.23 177.613 293.334 183.355 293.084 190.539C292.834 183.369 288.952 177.632 284.126 177.33C284.126 177.325 284.126 177.319 284.126 177.315C284.126 177.309 284.126 177.304 284.126 177.3Z" fill="#B8BBBC"/>
<path d="M267.655 495.284C267.655 495.289 267.655 495.295 267.655 495.299C267.521 495.29 267.521 495.277 267.655 495.269C267.655 495.275 267.655 495.28 267.655 495.284Z" fill="#B8BBBC"/>
<path d="M285.597 495.284C285.597 495.279 285.597 495.275 285.597 495.271C285.721 495.278 285.721 495.291 285.597 495.299C285.597 495.294 285.597 495.29 285.597 495.284Z" fill="#B8BBBC"/>
<path d="M267.654 495.269C272.48 494.966 276.362 489.23 276.612 482.06C276.863 489.243 280.758 494.986 285.596 495.27C285.596 495.275 285.596 495.279 285.596 495.284C285.596 495.288 285.596 495.293 285.596 495.297C280.758 495.582 276.863 501.324 276.612 508.508C276.362 501.338 272.48 495.601 267.654 495.299C267.654 495.294 267.654 495.288 267.654 495.284C267.654 495.279 267.654 495.275 267.654 495.269Z" fill="#B8BBBC"/>
<path d="M238.82 226.187C239.96 226.187 240.884 225.081 240.884 223.716C240.884 222.351 239.96 221.245 238.82 221.245C237.68 221.245 236.756 222.351 236.756 223.716C236.756 225.081 237.68 226.187 238.82 226.187Z" fill="#B8BBBC"/>
<path d="M272.431 231.13C272.431 232.494 273.355 233.601 274.495 233.601C275.634 233.601 276.559 232.494 276.559 231.13C276.559 229.765 275.634 228.658 274.495 228.658C273.355 228.658 272.431 229.765 272.431 231.13Z" fill="#B8BBBC"/>
<path d="M234.69 533.191C234.69 534.556 235.615 535.662 236.754 535.662C237.894 535.662 238.818 534.556 238.818 533.191C238.818 531.827 237.894 530.72 236.754 530.72C235.615 530.72 234.69 531.827 234.69 533.191Z" fill="#B8BBBC"/>
<path d="M162.331 162.735C162.331 164.1 163.255 165.207 164.395 165.207C165.535 165.207 166.459 164.1 166.459 162.735C166.459 161.371 165.535 160.264 164.395 160.264C163.255 160.264 162.331 161.371 162.331 162.735Z" fill="#B8BBBC"/>
</g>
<path d="M204.363 210.493L213.676 202.958V709.941L204.363 717.476V210.493Z" fill="#E286B8"/>
<g opacity="0.5">
<path d="M204.363 210.493L213.676 202.958V709.941L204.363 717.476V210.493Z" fill="#314B79"/>
</g>
<path d="M204.363 210.493C204.363 210.493 24.142 148.579 6.67949 140.212C-10.783 131.845 10.1723 111.766 22.0466 102.564C33.9209 93.3618 51.3849 82.4849 70.9443 87.5055L364.327 90.8515L358.04 97.545L56.9731 95.872C56.9731 95.872 41.606 95.872 26.9368 113.441C12.2677 131.01 19.9512 131.847 38.8111 138.539C57.6711 145.232 213.676 202.958 213.676 202.958L204.363 210.493Z" fill="#E286B8"/>
<path d="M204.363 210.493C204.363 210.493 24.142 148.579 6.67949 140.212C-10.783 131.845 10.1723 111.766 22.0466 102.564C33.9209 93.3618 51.3849 82.4849 70.9443 87.5055L364.327 90.8515L358.04 97.545L56.9731 95.872C56.9731 95.872 41.606 95.872 26.9368 113.441C12.2677 131.01 19.9512 131.847 38.8111 138.539C57.6711 145.232 213.676 202.958 213.676 202.958L204.363 210.493Z" fill="#314B79"/>
<path d="M0 133.519V611.225C0 611.225 8.38302 634.65 24.8405 628.793L204.363 717.475V210.493L0 133.519Z" fill="#314B79"/>
<g opacity="0.5">
<path d="M59.767 156.03L0 133.519V611.225C0 611.225 8.38302 634.65 24.8405 628.793L58.8623 645.6L59.767 628.793V156.03Z" fill="#314B79"/>
</g>
<path d="M0 133.519V611.225C0 611.225 8.38302 634.65 24.8405 628.793V142.875L0 133.519Z" fill="#314B79"/>
<path d="M213.672 603.342C222.49 613.003 232.116 621.866 243.688 628.166C261.516 637.87 285.303 640.148 301.788 628.453C325.722 611.475 323.69 575.374 343.044 553.658C353.417 542.017 369.81 535.599 385.691 536.959C401.572 538.319 416.526 547.423 424.597 560.642C433.747 575.629 433.849 593.955 438.008 610.867C445.44 641.078 467.093 667.776 495.756 682.071C504.628 686.495 514.606 689.832 524.492 688.421C536.404 686.721 546.006 678.57 555.543 671.501C576.163 656.213 604.694 644.469 627.584 656.402C637.713 661.683 644.949 670.81 651.867 679.67C669.553 702.318 692.43 721.589 710.116 744.237V0C663.409 25.7796 627.559 66.0441 592.899 105.674C577.169 123.657 560.929 142.116 539.355 153.159C518.489 163.839 493.415 166.679 470.54 160.952C447.395 155.157 426.113 140.961 402.2 141.328C384.448 141.601 367.532 150.258 355.316 162.643C343.102 175.029 335.225 190.874 330.112 207.219C325.153 223.076 322.556 239.763 314.937 254.612C301.278 281.23 271.011 299.151 240.139 298.901C231.638 298.832 222.196 295.573 213.671 294.225L213.672 603.342Z" fill="#A8C5DA"/>
<path d="M215.176 280.707C216.51 284.435 220.882 286.969 224.471 288.147C228.739 289.547 233.345 289.857 237.81 289.878C246.422 289.918 255.186 288.31 263.309 285.491C279.819 279.761 294.518 269.195 305.178 255.348C308.121 251.526 310.819 247.47 312.999 243.161C314.079 241.025 315.119 238.839 315.91 236.578C316.745 234.191 317.756 231.806 317.175 229.268C316.847 227.833 315.081 227.59 314.094 228.454C312.57 229.792 312.012 231.628 311.168 233.421C310.254 235.358 309.346 237.306 308.364 239.21C306.556 242.71 304.555 246.106 302.296 249.333C297.766 255.811 292.206 261.578 286.041 266.516C273.759 276.353 258.35 282.87 242.645 284.303C238.184 284.711 233.667 284.851 229.208 284.366C226.926 284.118 224.658 283.619 222.453 282.981C220.115 282.305 218.159 281.059 215.945 280.114C215.574 279.952 215.002 280.225 215.176 280.707Z" fill="#314B79"/>
<path d="M320.068 220.436C320.269 220.148 320.475 219.863 320.667 219.57C321.244 218.688 321.461 217.477 320.851 216.54C320.949 216.898 321.045 217.256 321.142 217.614C321.13 217.389 321.125 217.131 321.061 216.932C320.943 216.567 320.764 216.281 320.505 215.99C320.016 215.443 319.219 215.313 318.536 215.469C318.166 215.554 317.746 215.8 317.507 216.107C317.82 215.924 318.133 215.742 318.446 215.559C318.251 215.638 318.025 215.706 317.844 215.812C317.693 215.929 317.543 216.046 317.391 216.161C317.376 216.173 317.36 216.186 317.345 216.198C317.165 216.383 317.014 216.604 316.903 216.835C316.812 217.027 316.702 217.242 316.641 217.446C316.58 217.65 316.553 217.912 316.539 218.124C316.533 218.22 316.532 218.318 316.529 218.414C316.515 218.766 316.523 219.119 316.521 219.472C316.52 219.895 316.674 220.295 316.93 220.626C317.173 220.94 317.52 221.217 317.919 221.307C318.253 221.384 318.596 221.384 318.93 221.307C319.422 221.199 319.794 220.831 320.068 220.436Z" fill="#314B79"/>
<path d="M212.927 613.668C214.456 617.328 217.492 620.671 219.987 623.736C222.587 626.93 225.426 629.98 228.408 632.82C234.453 638.575 241.542 643.087 249.39 645.944C264.538 651.459 281.432 650.65 296.01 643.828C299.982 641.969 303.72 639.661 307.198 636.992C308.959 635.64 310.659 634.214 312.268 632.682C312.994 631.99 313.65 631.254 314.282 630.476C315.138 629.423 315.296 628.457 315.879 627.27C316.535 625.936 315.099 624.028 313.646 625.037C312.915 625.545 312.081 625.768 311.363 626.262C310.643 626.758 309.973 627.456 309.326 628.052C308.005 629.265 306.728 630.51 305.341 631.651C302.523 633.968 299.436 635.974 296.224 637.696C289.969 641.048 282.989 643.302 275.92 644.036C260.372 645.648 245.199 640.599 233.084 630.895C229.693 628.178 226.534 625.179 223.521 622.052C221.936 620.406 220.315 618.796 218.737 617.144C217.26 615.6 215.862 613.969 214.064 612.797C213.536 612.453 212.662 613.035 212.927 613.668Z" fill="#314B79"/>
<path d="M323.65 618.39C323.684 618.327 323.72 618.264 323.755 618.201C323.771 618.171 323.789 618.141 323.806 618.11C324.026 617.713 324.137 617.343 324.135 616.886C324.134 616.549 324.116 616.441 324.041 616.227C323.961 616.04 323.884 615.854 323.804 615.667C323.657 615.394 323.457 615.176 323.201 615.009C323.054 614.864 322.883 614.764 322.684 614.708C322.405 614.562 322.104 614.494 321.782 614.506C321.559 614.508 321.387 614.52 321.125 614.592C320.926 614.656 320.731 614.738 320.544 614.836C320.382 614.96 320.222 615.084 320.06 615.209C320.036 615.236 320.012 615.264 319.988 615.293C319.941 615.346 319.895 615.4 319.849 615.454C319.549 615.757 319.341 616.113 319.226 616.522C319.197 616.736 319.169 616.951 319.139 617.166C319.14 617.604 319.251 618.011 319.47 618.388C319.622 618.67 319.829 618.898 320.093 619.067C320.326 619.281 320.6 619.425 320.917 619.5C321.239 619.6 321.561 619.615 321.883 619.543C322.205 619.528 322.504 619.432 322.783 619.256C323.145 619.043 323.434 618.754 323.65 618.39Z" fill="#314B79"/>
<path d="M516.033 152.732C529.901 151.147 542.636 143.691 553.599 135.41C565.304 126.567 575.452 115.983 584.773 104.691C604.476 80.8196 620.743 54.029 643.354 32.6454C649.215 27.1021 655.454 21.9618 662.178 17.4969C668.94 13.0066 676.109 9.69354 683.454 6.31008C685.889 5.18825 684.162 1.25361 681.641 2.01148C674.882 4.04545 668.42 7.60714 662.45 11.3231C656.381 15.1005 650.654 19.432 645.241 24.0991C634.137 33.6728 624.461 44.7548 615.426 56.2667C596.378 80.5395 579.625 106.812 556.068 127.129C550.082 132.292 543.662 136.946 536.868 140.991C530.087 145.029 522.884 148.335 515.75 151.687C515.259 151.916 515.483 152.795 516.033 152.732Z" fill="#314B79"/>
<path d="M496.284 151.155C496.508 151.462 496.706 151.726 497.004 151.955C497.344 152.217 497.759 152.364 498.165 152.499C497.861 152.322 497.557 152.144 497.253 151.967C497.266 151.983 497.281 152 497.295 152.015C497.44 152.127 497.584 152.238 497.729 152.35C497.886 152.442 498.114 152.521 498.285 152.582C498.342 152.603 498.4 152.623 498.459 152.639C498.658 152.666 498.858 152.693 499.058 152.72C499.074 152.722 499.091 152.723 499.107 152.723C499.309 152.72 499.558 152.669 499.757 152.635C499.831 152.621 499.902 152.608 499.974 152.591C500.039 152.576 500.102 152.56 500.166 152.543C500.197 152.534 500.229 152.525 500.26 152.515C500.362 152.485 500.46 152.445 500.554 152.394C500.746 152.34 500.912 152.242 501.054 152.103C501.225 152.003 501.36 151.866 501.46 151.697C501.524 151.616 501.587 151.535 501.647 151.453C501.71 151.348 501.854 151.01 501.887 150.891C501.899 150.849 501.908 150.809 501.917 150.767C501.941 150.587 501.965 150.408 501.989 150.228C501.999 149.949 501.941 149.689 501.814 149.446C501.766 149.274 501.679 149.126 501.553 148.998C501.409 148.777 501.22 148.603 500.984 148.476C500.949 148.452 500.915 148.426 500.882 148.401C501.03 148.514 501.178 148.63 501.327 148.744C500.942 148.446 500.768 148.272 500.283 148.142C499.878 148.032 499.435 148.049 499.032 148.156C498.92 148.186 498.811 148.218 498.697 148.242C498.405 148.303 498.155 148.38 497.88 148.549C497.841 148.573 497.804 148.597 497.765 148.622C497.389 148.86 497.161 149.084 496.926 149.464C497.173 149.217 497.421 148.97 497.668 148.723C497.615 148.748 497.561 148.772 497.507 148.796C497.666 148.729 497.825 148.661 497.984 148.595C497.91 148.627 497.837 148.655 497.762 148.682C497.554 148.757 497.317 148.82 497.138 148.949C497.028 149.027 496.917 149.105 496.802 149.172C496.501 149.349 496.213 149.693 496.136 150.039C496.056 150.396 496.058 150.846 496.284 151.155Z" fill="#321838"/>
<path d="M434.854 638.477C435.031 638.704 435.209 638.934 435.386 639.161C435.562 639.387 435.73 639.627 435.922 639.841C436.092 640.025 436.296 640.156 436.53 640.232C436.756 640.35 436.999 640.404 437.259 640.395C437.427 640.373 437.595 640.35 437.762 640.328C438.008 640.27 438.222 640.156 438.407 639.989C438.549 639.906 438.663 639.792 438.746 639.649C438.914 639.467 439.027 639.253 439.085 639.005C439.107 638.838 439.13 638.67 439.152 638.502C439.151 638.161 439.066 637.843 438.895 637.548C438.866 637.502 438.838 637.457 438.809 637.41C438.809 638.056 438.809 638.7 438.809 639.345C438.823 639.32 438.835 639.293 438.848 639.268C438.92 639.095 438.994 638.925 439.066 638.752C439.155 638.465 439.169 638.179 439.104 637.891C439.104 637.696 439.055 637.515 438.958 637.346C438.871 637.078 438.721 636.847 438.511 636.651C438.242 636.335 437.972 636.019 437.704 635.703C437.508 635.492 437.277 635.343 437.009 635.257C436.751 635.122 436.474 635.059 436.178 635.071C435.881 635.059 435.603 635.122 435.347 635.257C435.078 635.343 434.848 635.493 434.652 635.703C434.539 635.848 434.427 635.993 434.315 636.14C434.12 636.477 434.021 636.84 434.02 637.231C434.045 637.422 434.07 637.613 434.096 637.804C434.199 638.17 434.384 638.487 434.652 638.757C434.921 639.073 435.189 639.389 435.459 639.706C435.728 639.974 436.046 640.159 436.411 640.262C436.793 640.365 437.177 640.365 437.559 640.262C437.595 640.252 437.629 640.24 437.665 640.229C437.044 640.064 436.422 639.901 435.8 639.736C435.842 639.772 435.883 639.808 435.925 639.844C436.689 638.854 437.454 637.863 438.218 636.873C437.974 636.729 437.709 636.613 437.455 636.486C437.199 636.359 436.945 636.233 436.689 636.106C436.515 635.995 436.328 635.935 436.127 635.926C435.926 635.881 435.725 635.89 435.525 635.953C435.405 636.004 435.284 636.055 435.164 636.106C434.987 636.2 434.846 636.33 434.74 636.495C434.646 636.59 434.581 636.7 434.545 636.829C434.451 637.009 434.407 637.204 434.415 637.412C434.433 637.545 434.451 637.68 434.469 637.813C434.538 638.066 434.667 638.288 434.854 638.477Z" fill="#314B79"/>
<path d="M440.991 650.18C442.31 657.876 447.79 664.318 453.145 669.681C458.917 675.463 465.189 680.816 471.753 685.675C484.6 695.182 499.63 702.168 515.912 701.812C520.208 701.717 524.563 701.141 528.686 699.911C532.847 698.669 537.096 697.007 540.072 693.743C541.289 692.409 540.123 689.921 538.211 690.545C534.862 691.639 531.749 693.3 528.378 694.338C525.009 695.374 521.527 696.024 518.01 696.241C510.811 696.688 503.623 695.572 496.809 693.237C482.305 688.266 469.999 678.596 458.633 668.579C452.269 662.971 447 656.862 443.141 649.276C442.494 648.006 440.779 648.952 440.991 650.18Z" fill="#314B79"/>
<path d="M346.061 587.47C343.482 598.21 346.663 610.536 355.205 617.539C361.776 622.928 370.506 624.715 378.119 628.491C385.622 632.211 392.001 637.849 399.247 642.047C403.536 644.532 408.794 646.521 413.342 644.551C418.647 642.254 420.515 635.725 421.075 629.971C423.085 609.298 416.094 587.907 402.263 572.413C382.623 550.414 352.901 558.982 346.061 587.47Z" fill="#314B79"/>
<path d="M388.189 691.601C391.297 694.465 395.322 696.945 399.499 696.298C403.625 695.659 406.796 691.992 407.955 687.981C409.115 683.97 408.608 679.671 407.768 675.581C405.466 664.367 395.608 648.082 382.393 657.468C369.935 666.317 379.721 683.798 388.189 691.601Z" fill="#314B79"/>
<path d="M586.334 674.667C599.192 672.262 612.584 676.442 623.661 683.402C634.739 690.362 643.887 699.936 652.91 709.408C658.393 715.162 663.877 720.918 669.358 726.673C671.485 728.904 673.735 731.407 673.927 734.484C674.165 738.288 670.988 741.64 667.377 742.861C663.766 744.081 659.828 743.648 656.054 743.118C632.873 739.865 610.138 733.444 588.681 724.09C578.911 719.832 562.194 710.13 561.264 697.884C560.349 685.821 576.264 676.55 586.334 674.667Z" fill="#314B79"/>
<path d="M514.976 135.936C539.133 128.694 559.647 110.171 569.31 86.8765C571.509 81.5759 573.191 75.8963 572.764 70.1733C572.337 64.4504 569.475 58.6615 564.429 55.9281C557.881 52.3813 549.796 54.7044 542.899 57.5112C518.045 67.6227 495.349 83.2429 469.357 89.9035C461.95 91.8011 454.291 92.9679 447.294 96.0518C428.228 104.457 426.269 124.512 446.43 129.698C470.014 135.762 490.331 143.324 514.976 135.936Z" fill="#314B79"/>
<path d="M385.358 124.988C387.564 126.541 390.172 127.456 392.829 127.922C400.667 129.295 409.418 126.382 413.913 119.817C424.625 104.178 407.266 92.8454 392.826 95.8365C379.981 98.498 372.999 116.286 385.358 124.988Z" fill="#314B79"/>
<path d="M609.038 192.279C609.038 192.282 609.038 192.287 609.038 192.29C609.147 192.284 609.147 192.275 609.038 192.269C609.038 192.272 609.038 192.276 609.038 192.279Z" fill="white"/>
<path d="M594.387 192.279C594.387 192.276 594.387 192.273 594.387 192.269C594.285 192.273 594.285 192.284 594.387 192.288C594.387 192.285 594.387 192.282 594.387 192.279Z" fill="white"/>
<path d="M609.038 192.269C605.097 192.062 601.927 188.151 601.723 183.262C601.519 188.16 598.338 192.075 594.387 192.269C594.387 192.272 594.387 192.275 594.387 192.279C594.387 192.282 594.387 192.285 594.387 192.288C598.338 192.481 601.519 196.398 601.723 201.294C601.927 196.405 605.097 192.495 609.038 192.288C609.038 192.285 609.038 192.281 609.038 192.278C609.038 192.275 609.038 192.272 609.038 192.269Z" fill="white"/>
<path d="M397.93 209.12C397.93 209.123 397.93 209.128 397.93 209.131C398.039 209.125 398.039 209.116 397.93 209.11C397.93 209.113 397.93 209.117 397.93 209.12Z" fill="white"/>
<path d="M383.279 209.12C383.279 209.117 383.279 209.114 383.279 209.111C383.177 209.116 383.177 209.126 383.279 209.131C383.279 209.126 383.279 209.123 383.279 209.12Z" fill="white"/>
<path d="M397.93 209.11C393.989 208.903 390.818 204.992 390.614 200.104C390.411 205.001 387.229 208.916 383.278 209.11C383.278 209.113 383.278 209.116 383.278 209.119C383.278 209.122 383.278 209.125 383.278 209.128C387.229 209.321 390.411 213.237 390.614 218.134C390.818 213.245 393.989 209.334 397.93 209.128C397.93 209.125 397.93 209.12 397.93 209.117C397.93 209.117 397.93 209.113 397.93 209.11Z" fill="white"/>
<path d="M527.383 95.3554C527.383 95.3584 527.383 95.3629 527.383 95.3659C527.492 95.3599 527.492 95.351 527.383 95.345C527.383 95.3495 527.383 95.3525 527.383 95.3554Z" fill="white"/>
<path d="M512.734 95.3554C512.734 95.3524 512.734 95.3494 512.734 95.3464C512.632 95.3509 512.632 95.3614 512.734 95.3659C512.734 95.3629 512.734 95.3584 512.734 95.3554Z" fill="white"/>
<path d="M527.383 95.345C523.442 95.1383 520.271 91.2276 520.068 86.3389C519.864 91.2351 516.683 95.1517 512.731 95.345C512.731 95.348 512.731 95.3509 512.731 95.3539C512.731 95.3569 512.731 95.3599 512.731 95.3629C516.683 95.5561 519.864 99.4728 520.068 104.369C520.271 99.4803 523.442 95.5696 527.383 95.3629C527.383 95.3599 527.383 95.3554 527.383 95.3524C527.383 95.3524 527.383 95.3495 527.383 95.345Z" fill="white"/>
<path d="M623.608 294.895C623.608 294.898 623.608 294.902 623.608 294.905C623.718 294.899 623.718 294.89 623.608 294.884C623.608 294.889 623.608 294.892 623.608 294.895Z" fill="white"/>
<path d="M608.959 294.895C608.959 294.892 608.959 294.888 608.959 294.885C608.857 294.89 608.857 294.899 608.959 294.905C608.959 294.902 608.959 294.899 608.959 294.895Z" fill="white"/>
<path d="M623.608 294.885C619.668 294.679 616.497 290.768 616.293 285.879C616.089 290.777 612.908 294.692 608.957 294.885C608.957 294.888 608.957 294.891 608.957 294.894C608.957 294.897 608.957 294.9 608.957 294.903C612.908 295.097 616.088 299.013 616.293 303.91C616.497 299.021 619.668 295.11 623.608 294.903C623.608 294.9 623.608 294.896 623.608 294.893C623.608 294.893 623.608 294.888 623.608 294.885Z" fill="white"/>
<path d="M519.98 223.716C519.98 223.719 519.98 223.723 519.98 223.726C520.09 223.72 520.09 223.711 519.98 223.705C519.98 223.71 519.98 223.713 519.98 223.716Z" fill="white"/>
<path d="M505.329 223.716C505.329 223.713 505.329 223.71 505.329 223.707C505.227 223.711 505.227 223.722 505.329 223.726C505.329 223.723 505.329 223.719 505.329 223.716Z" fill="white"/>
<path d="M519.98 223.705C516.04 223.499 512.869 219.588 512.665 214.699C512.461 219.597 509.28 223.512 505.329 223.705C505.329 223.708 505.329 223.711 505.329 223.714C505.329 223.717 505.329 223.72 505.329 223.723C509.28 223.916 512.461 227.833 512.665 232.729C512.869 227.841 516.04 223.93 519.98 223.723C519.98 223.72 519.98 223.716 519.98 223.713C519.98 223.71 519.98 223.71 519.98 223.705Z" fill="white"/>
<path d="M686.25 382.072C686.25 382.075 686.25 382.079 686.25 382.082C686.359 382.076 686.359 382.067 686.25 382.061C686.25 382.064 686.25 382.067 686.25 382.072Z" fill="white"/>
<path d="M671.599 382.072C671.599 382.069 671.599 382.066 671.599 382.063C671.497 382.067 671.497 382.078 671.599 382.082C671.6 382.078 671.599 382.075 671.599 382.072Z" fill="white"/>
<path d="M686.25 382.062C682.309 381.855 679.138 377.944 678.935 373.055C678.731 377.952 675.55 381.868 671.599 382.062C671.599 382.065 671.599 382.067 671.599 382.07C671.599 382.073 671.599 382.076 671.599 382.081C675.55 382.274 678.731 386.191 678.935 391.087C679.138 386.198 682.309 382.288 686.25 382.081C686.25 382.078 686.25 382.073 686.25 382.07C686.25 382.067 686.25 382.065 686.25 382.062Z" fill="white"/>
<path d="M505.609 593.432C505.609 593.435 505.609 593.438 505.609 593.443C505.718 593.437 505.718 593.428 505.609 593.422C505.608 593.425 505.609 593.429 505.609 593.432Z" fill="white"/>
<path d="M490.957 593.432C490.957 593.429 490.957 593.426 490.957 593.422C490.855 593.426 490.855 593.437 490.957 593.441C490.957 593.438 490.957 593.435 490.957 593.432Z" fill="white"/>
<path d="M505.606 593.422C501.666 593.215 498.495 589.305 498.291 584.416C498.087 589.314 494.906 593.229 490.955 593.422C490.955 593.425 490.955 593.428 490.955 593.433C490.955 593.436 490.955 593.439 490.955 593.442C494.906 593.635 498.087 597.551 498.291 602.448C498.495 597.559 501.666 593.648 505.606 593.442C505.606 593.439 505.606 593.434 505.606 593.431C505.606 593.431 505.606 593.425 505.606 593.422Z" fill="white"/>
<path d="M687.936 645.54C687.936 645.543 687.936 645.548 687.936 645.551C688.045 645.545 688.045 645.536 687.936 645.53C687.936 645.533 687.936 645.537 687.936 645.54Z" fill="white"/>
<path d="M673.284 645.54C673.284 645.537 673.284 645.534 673.284 645.531C673.183 645.535 673.183 645.546 673.284 645.55C673.284 645.546 673.284 645.543 673.284 645.54Z" fill="white"/>
<path d="M687.934 645.53C683.994 645.323 680.823 641.412 680.619 636.523C680.416 641.42 677.234 645.336 673.283 645.53C673.283 645.533 673.283 645.536 673.283 645.539C673.283 645.542 673.283 645.545 673.283 645.548C677.234 645.741 680.416 649.657 680.619 654.554C680.823 649.665 683.994 645.754 687.934 645.548C687.934 645.545 687.934 645.54 687.934 645.537C687.934 645.534 687.934 645.533 687.934 645.53Z" fill="white"/>
<path d="M391.551 589.387C391.551 589.39 391.551 589.393 391.551 589.398C391.661 589.392 391.661 589.383 391.551 589.377C391.55 589.38 391.551 589.383 391.551 589.387Z" fill="white"/>
<path d="M376.9 589.387C376.9 589.384 376.9 589.381 376.9 589.377C376.798 589.381 376.798 589.392 376.9 589.396C376.9 589.393 376.9 589.39 376.9 589.387Z" fill="white"/>
<path d="M391.55 589.377C387.609 589.17 384.438 585.259 384.235 580.371C384.031 585.268 380.85 589.183 376.898 589.377C376.898 589.38 376.898 589.383 376.898 589.387C376.898 589.39 376.898 589.393 376.898 589.396C380.85 589.589 384.031 593.506 384.235 598.402C384.438 593.514 387.609 589.603 391.55 589.396C391.55 589.393 391.55 589.389 391.55 589.386C391.55 589.383 391.55 589.38 391.55 589.377Z" fill="white"/>
<path d="M605.465 696.401C605.465 696.404 605.465 696.407 605.465 696.412C605.574 696.406 605.574 696.397 605.465 696.391C605.465 696.394 605.465 696.397 605.465 696.401Z" fill="white"/>
<path d="M590.814 696.401C590.814 696.398 590.814 696.395 590.814 696.391C590.712 696.395 590.712 696.406 590.814 696.41C590.814 696.407 590.814 696.404 590.814 696.401Z" fill="white"/>
<path d="M605.464 696.391C601.523 696.184 598.352 692.273 598.149 687.385C597.945 692.282 594.764 696.198 590.812 696.391C590.812 696.394 590.812 696.397 590.812 696.401C590.812 696.404 590.812 696.407 590.812 696.41C594.764 696.604 597.945 700.52 598.149 705.416C598.352 700.528 601.523 696.617 605.464 696.41C605.464 696.407 605.464 696.403 605.464 696.4C605.464 696.397 605.464 696.394 605.464 696.391Z" fill="white"/>
<path d="M281.817 563.491C281.817 563.494 281.817 563.498 281.817 563.501C281.927 563.495 281.927 563.486 281.817 563.48C281.817 563.485 281.817 563.488 281.817 563.491Z" fill="white"/>
<path d="M267.168 563.491C267.168 563.488 267.168 563.485 267.168 563.482C267.066 563.486 267.066 563.497 267.168 563.501C267.168 563.497 267.168 563.494 267.168 563.491Z" fill="white"/>
<path d="M281.817 563.48C277.877 563.274 274.706 559.363 274.502 554.474C274.298 559.37 271.117 563.287 267.166 563.48C267.166 563.483 267.166 563.486 267.166 563.489C267.166 563.492 267.166 563.495 267.166 563.5C271.117 563.693 274.298 567.608 274.502 572.506C274.706 567.617 277.877 563.706 281.817 563.5C281.817 563.497 281.817 563.492 281.817 563.489C281.817 563.486 281.817 563.485 281.817 563.48Z" fill="white"/>
<path d="M587.039 572.507C587.039 572.51 587.039 572.515 587.039 572.518C587.148 572.512 587.148 572.503 587.039 572.497C587.039 572.5 587.039 572.503 587.039 572.507Z" fill="white"/>
<path d="M572.39 572.507C572.39 572.504 572.39 572.501 572.39 572.498C572.288 572.503 572.288 572.513 572.39 572.518C572.39 572.513 572.39 572.51 572.39 572.507Z" fill="white"/>
<path d="M587.039 572.497C583.098 572.29 579.927 568.379 579.724 563.491C579.52 568.388 576.339 572.304 572.388 572.497C572.388 572.5 572.388 572.503 572.388 572.506C572.388 572.509 572.388 572.512 572.388 572.515C576.339 572.708 579.52 576.625 579.724 581.521C579.927 576.632 583.098 572.721 587.039 572.515C587.039 572.512 587.039 572.507 587.039 572.504C587.039 572.501 587.039 572.5 587.039 572.497Z" fill="white"/>
<path d="M293.015 342.39C293.015 342.393 293.015 342.398 293.015 342.401C293.124 342.395 293.124 342.386 293.015 342.38C293.015 342.383 293.015 342.386 293.015 342.39Z" fill="white"/>
<path d="M278.363 342.39C278.363 342.387 278.363 342.384 278.363 342.38C278.262 342.384 278.262 342.395 278.363 342.399C278.363 342.396 278.363 342.393 278.363 342.39Z" fill="white"/>
<path d="M293.014 342.38C289.073 342.173 285.902 338.262 285.698 333.374C285.495 338.271 282.313 342.186 278.362 342.38C278.362 342.383 278.362 342.386 278.362 342.39C278.362 342.393 278.362 342.396 278.362 342.399C282.313 342.592 285.493 346.509 285.698 351.405C285.902 346.516 289.071 342.606 293.014 342.399C293.014 342.396 293.014 342.392 293.014 342.389C293.014 342.386 293.014 342.383 293.014 342.38Z" fill="white"/>
<path d="M337.465 451.655C337.465 451.658 337.465 451.663 337.465 451.666C337.574 451.66 337.574 451.651 337.465 451.645C337.465 451.649 337.465 451.652 337.465 451.655Z" fill="white"/>
<path d="M322.814 451.655C322.814 451.652 322.814 451.649 322.814 451.646C322.712 451.651 322.712 451.66 322.814 451.666C322.814 451.661 322.814 451.658 322.814 451.655Z" fill="white"/>
<path d="M337.465 451.645C333.524 451.438 330.353 447.527 330.15 442.64C329.946 447.536 326.765 451.453 322.813 451.646C322.813 451.649 322.813 451.652 322.813 451.655C322.813 451.658 322.813 451.661 322.813 451.666C326.765 451.859 329.946 455.774 330.15 460.672C330.353 455.783 333.524 451.872 337.465 451.666C337.465 451.663 337.465 451.658 337.465 451.655C337.465 451.652 337.465 451.649 337.465 451.645Z" fill="white"/>
<path d="M693.572 111.981C693.572 111.984 693.572 111.988 693.572 111.991C693.682 111.985 693.682 111.976 693.572 111.97C693.572 111.973 693.572 111.976 693.572 111.981Z" fill="white"/>
<path d="M678.921 111.981C678.921 111.978 678.921 111.975 678.921 111.972C678.819 111.976 678.819 111.985 678.921 111.991C678.923 111.987 678.921 111.984 678.921 111.981Z" fill="white"/>
<path d="M693.572 111.97C689.631 111.764 686.461 107.853 686.257 102.964C686.053 107.861 682.872 111.777 678.921 111.97C678.921 111.973 678.921 111.976 678.921 111.979C678.921 111.982 678.921 111.985 678.921 111.99C682.872 112.183 686.053 116.1 686.257 120.996C686.461 116.107 689.631 112.197 693.572 111.99C693.572 111.987 693.572 111.982 693.572 111.979C693.572 111.976 693.572 111.973 693.572 111.97Z" fill="white"/>
<path d="M680.613 224.701C680.613 225.631 679.858 226.386 678.928 226.386C677.998 226.386 677.243 225.631 677.243 224.701C677.243 223.771 677.998 223.016 678.928 223.016C679.858 223.016 680.613 223.771 680.613 224.701Z" fill="white"/>
<path d="M669.834 333.374C669.834 334.304 669.079 335.059 668.149 335.059C667.219 335.059 666.464 334.304 666.464 333.374C666.464 332.444 667.219 331.689 668.149 331.689C669.08 331.689 669.834 332.444 669.834 333.374Z" fill="white"/>
<path d="M571.397 263.36C571.397 264.29 570.642 265.045 569.712 265.045C568.782 265.045 568.027 264.29 568.027 263.36C568.027 262.43 568.782 261.675 569.712 261.675C570.642 261.675 571.397 262.43 571.397 263.36Z" fill="white"/>
<path d="M535.807 635.352C535.807 636.282 535.053 637.037 534.122 637.037C533.192 637.037 532.438 636.282 532.438 635.352C532.438 634.422 533.192 633.667 534.122 633.667C535.053 633.667 535.807 634.422 535.807 635.352Z" fill="white"/>
<path d="M418.886 483.964C418.886 484.894 418.131 485.649 417.201 485.649C416.271 485.649 415.516 484.894 415.516 483.964C415.516 483.034 416.271 482.279 417.201 482.279C418.131 482.28 418.886 483.034 418.886 483.964Z" fill="white"/>
<path d="M397.524 614.01C397.524 614.941 396.769 615.695 395.839 615.695C394.909 615.695 394.154 614.941 394.154 614.01C394.154 613.08 394.909 612.325 395.839 612.325C396.771 612.325 397.524 613.08 397.524 614.01Z" fill="white"/>
<path d="M472.28 540.352C472.28 541.282 471.525 542.037 470.595 542.037C469.665 542.037 468.91 541.282 468.91 540.352C468.91 539.422 469.665 538.667 470.595 538.667C471.527 538.667 472.28 539.422 472.28 540.352Z" fill="white"/>
<path d="M682.299 544.613C682.299 545.543 681.544 546.298 680.614 546.298C679.684 546.298 678.929 545.543 678.929 544.613C678.929 543.683 679.684 542.928 680.614 542.928C681.544 542.928 682.299 543.681 682.299 544.613Z" fill="white"/>
<path d="M618.812 615.695C618.812 616.626 618.057 617.38 617.127 617.38C616.197 617.38 615.442 616.626 615.442 615.695C615.442 614.765 616.197 614.01 617.127 614.01C618.059 614.01 618.812 614.765 618.812 615.695Z" fill="white"/>
<path d="M635.929 719.054C635.929 719.984 635.174 720.739 634.244 720.739C633.313 720.739 632.559 719.984 632.559 719.054C632.559 718.124 633.313 717.369 634.244 717.369C635.174 717.369 635.929 718.124 635.929 719.054Z" fill="white"/>
<path d="M363.528 278.66C363.528 279.59 362.773 280.345 361.843 280.345C360.913 280.345 360.158 279.59 360.158 278.66C360.158 277.73 360.913 276.975 361.843 276.975C362.773 276.975 363.528 277.73 363.528 278.66Z" fill="white"/>
<path d="M278.31 460.91C278.31 461.84 277.556 462.595 276.625 462.595C275.695 462.595 274.94 461.84 274.94 460.91C274.94 459.98 275.695 459.225 276.625 459.225C277.557 459.225 278.31 459.98 278.31 460.91Z" fill="white"/>
<path d="M349.447 403.541C349.447 404.471 348.692 405.226 347.762 405.226C346.832 405.226 346.077 404.471 346.077 403.541C346.077 402.611 346.832 401.856 347.762 401.856C348.694 401.856 349.447 402.611 349.447 403.541Z" fill="white"/>
<path d="M250.213 406.478C250.213 407.408 249.458 408.163 248.528 408.163C247.598 408.163 246.843 407.408 246.843 406.478C246.843 405.548 247.598 404.793 248.528 404.793C249.458 404.793 250.213 405.546 250.213 406.478Z" fill="white"/>
<path d="M334.33 509.326C334.33 510.256 333.575 511.011 332.645 511.011C331.715 511.011 330.96 510.256 330.96 509.326C330.96 508.396 331.715 507.641 332.645 507.641C333.575 507.642 334.33 508.396 334.33 509.326Z" fill="white"/>
<path d="M456.606 226.386C456.606 227.316 455.851 228.071 454.921 228.071C453.991 228.071 453.236 227.316 453.236 226.386C453.236 225.456 453.991 224.701 454.921 224.701C455.851 224.701 456.606 225.455 456.606 226.386Z" fill="white"/>
<path d="M399.21 110.121C399.21 111.051 398.455 111.806 397.525 111.806C396.595 111.806 395.84 111.051 395.84 110.121C395.84 109.19 396.595 108.436 397.525 108.436C398.456 108.436 399.21 109.19 399.21 110.121Z" fill="white"/>
<path d="M488.969 111.805C488.969 112.735 488.214 113.49 487.284 113.49C486.354 113.49 485.599 112.735 485.599 111.805C485.599 110.875 486.354 110.12 487.284 110.12C488.214 110.12 488.969 110.875 488.969 111.805Z" fill="white"/>
<path d="M617.129 556.486C617.129 556.951 616.752 557.327 616.286 557.327C615.82 557.327 615.444 556.95 615.444 556.486C615.444 556.02 615.822 555.644 616.286 555.644C616.752 555.644 617.129 556.021 617.129 556.486Z" fill="white"/>
<path d="M647.103 127.538C647.103 128.468 646.349 129.223 645.418 129.223C644.488 129.223 643.733 128.468 643.733 127.538C643.733 126.608 644.488 125.853 645.418 125.853C646.349 125.853 647.103 126.607 647.103 127.538Z" fill="white"/>
<path d="M370.146 387.699C393.198 411.59 422.325 429.569 454.013 439.469C459.739 441.258 462.784 432.798 464.487 427.045C466.19 421.292 464.924 414.955 462.092 409.667C459.26 404.378 454.981 400.009 450.453 396.071C437.503 384.811 422.25 376.588 407.136 368.462C384.521 356.301 361.465 343.979 336.254 339.108C334.791 338.825 333.086 338.63 331.981 339.631C330.942 340.572 330.904 342.264 331.526 343.521C332.147 344.777 333.281 345.692 334.4 346.537C332.881 346.31 330.567 346.215 329.105 346.684C327.643 347.153 326.342 348.49 326.433 350.024C326.474 350.719 326.788 351.369 327.163 351.956C328.362 353.839 330.257 355.266 332.396 355.901C330.377 356.944 329.027 359.969 329.763 362.119C330.479 364.209 332.285 365.782 334.288 366.715C336.29 367.65 338.499 368.029 340.677 368.399C342.942 368.784 345.206 369.169 347.471 369.553C349.108 369.832 350.866 370.172 352.008 371.378C353.149 372.586 365.071 382.442 370.146 387.699Z" fill="#F7F4EF"/>
<path d="M331.98 339.632C330.941 340.573 330.903 342.266 331.525 343.522C332.146 344.779 333.28 345.694 334.399 346.539C332.88 346.311 330.566 346.217 329.104 346.685C327.642 347.154 326.341 348.492 326.432 350.026C326.473 350.72 326.787 351.371 327.162 351.958C328.361 353.84 330.256 355.268 332.395 355.903C330.376 356.945 329.026 359.971 329.762 362.12C330.478 364.211 332.284 365.784 334.287 366.717C336.289 367.65 338.498 368.03 340.676 368.4C342.941 368.785 345.205 369.17 347.47 369.555C349.107 369.834 350.865 370.174 352.007 371.379C353.148 372.585 365.072 382.44 370.145 387.699C371.866 389.483 373.627 391.228 375.418 392.94C378.757 381.181 383.902 369.935 390.607 359.716C373.229 350.777 355.36 342.8 336.252 339.108C334.79 338.827 333.085 338.63 331.98 339.632Z" fill="#314B79"/>
<g opacity="0.5">
<path d="M354.914 363.419C350.161 362.105 343.86 362.658 339.108 363.971C336.954 364.567 334.8 365.162 332.646 365.758C333.165 366.125 333.716 366.45 334.287 366.717C336.289 367.651 338.498 368.03 340.676 368.4C342.941 368.785 345.205 369.17 347.47 369.555C349.107 369.834 350.865 370.174 352.007 371.379C352.72 372.133 357.631 376.255 362.457 380.525C362.63 380.477 362.81 380.448 362.982 380.394C365.743 379.541 368.082 367.06 354.914 363.419Z" fill="#C19ABD"/>
</g>
<path d="M335.542 372.593C335.375 372.235 335.18 371.872 335.205 371.478C335.264 370.587 336.144 370.009 336.938 369.597C341.002 367.488 345.417 365.904 349.988 365.665C354.333 365.439 365.802 367.542 365.183 373.92C364.614 379.785 338.003 377.835 335.542 372.593Z" fill="#314B79"/>
<g opacity="0.5">
<path d="M368.783 386.339C369.271 386.815 369.737 387.276 370.145 387.699C371.866 389.483 373.627 391.227 375.418 392.939C378.757 381.18 383.902 369.935 390.607 359.716C388.581 358.673 386.548 357.646 384.508 356.636C377.92 365.741 372.607 375.77 368.783 386.339Z" fill="#C19ABD"/>
</g>
<g opacity="0.5">
<path d="M332.47 356.158C335.395 356.62 338.358 356.809 341.281 357.302C342.731 357.546 344.163 357.862 345.592 358.207C347.046 358.558 348.534 359.21 350.007 359.412C350.959 359.543 351.712 358.283 350.716 357.73C349.405 357.002 347.728 356.706 346.28 356.351C344.741 355.973 343.178 355.699 341.609 355.481C338.559 355.055 335.515 354.846 332.472 355.412C332.106 355.481 332.096 356.099 332.47 356.158Z" fill="#C19ABD"/>
</g>
<g opacity="0.5">
<path d="M334.323 346.54C337.633 347.594 340.982 348.555 344.271 349.678C345.887 350.229 347.494 350.819 349.086 351.439C349.91 351.76 350.729 352.092 351.543 352.44C352.34 352.78 353.144 353.258 353.993 353.434C355.137 353.671 355.62 352.303 354.751 351.638C354.001 351.063 352.982 350.753 352.113 350.386C351.354 350.066 350.592 349.753 349.825 349.452C348.177 348.806 346.509 348.227 344.816 347.708C341.406 346.664 338.01 345.897 334.453 345.598C333.893 345.55 333.829 346.381 334.323 346.54Z" fill="#C19ABD"/>
</g>
<g opacity="0.5">
<path d="M462.091 409.667C459.258 404.378 454.979 400.009 450.451 396.072C437.502 384.811 422.248 376.589 407.134 368.462C399.571 364.394 391.955 360.315 384.228 356.498C393.929 368.381 401.686 382.271 413.155 392.529C417.547 396.457 422.494 399.862 426.054 404.556C431.268 411.433 432.928 420.261 435.117 428.609C435.502 430.075 435.923 431.554 436.389 433.023C442.157 435.449 448.039 437.603 454.012 439.47C459.738 441.258 462.783 432.798 464.484 427.045C466.188 421.294 464.923 414.956 462.091 409.667Z" fill="#314B79"/>
</g>
<path d="M590.238 468.054L533.275 467.209C526.472 468.524 519.893 464.078 518.576 457.275L502.869 376.046C501.554 369.243 506.002 362.664 512.804 361.349L576.606 349.011C583.409 347.696 589.988 352.143 591.305 358.946L607.012 440.175C608.835 451.856 597.04 466.738 590.238 468.054Z" fill="#314B79"/>
<g opacity="0.5">
<path d="M607.013 440.175L591.306 358.946C590.523 354.892 587.861 351.688 584.405 350.027L517.667 452.569L518.576 457.275C519.891 464.078 526.472 468.524 533.275 467.209L590.238 468.054C597.041 466.738 608.836 451.856 607.013 440.175Z" fill="#314B79"/>
</g>
<path d="M586.403 469.485L522.601 481.822C515.799 483.137 509.219 478.69 507.902 471.887L492.195 390.658C490.88 383.856 495.329 377.276 502.13 375.961L565.932 363.624C572.735 362.309 579.314 366.756 580.631 373.558L596.338 454.787C597.653 461.588 593.205 468.17 586.403 469.485Z" fill="#314B79"/>
<path d="M599.201 500.508C600.712 513.167 601.058 527.789 598.89 540.353C588.603 539.223 578.725 534.638 571.223 527.51C570.525 526.846 569.803 526.137 568.874 525.886C567.851 525.611 566.774 525.945 565.76 526.253C546.399 532.143 524.561 529.304 507.347 518.664C493.917 510.362 483.569 497.802 475.46 484.254C516.658 479.439 559.897 487.253 599.201 500.508Z" fill="#E3DAE8"/>
<path d="M573.2 492.764C571.41 505.4 566.505 517.591 559.012 527.92C561.285 527.474 563.539 526.927 565.759 526.252C566.773 525.943 567.849 525.61 568.873 525.885C569.802 526.135 570.524 526.845 571.222 527.508C578.724 534.636 588.602 539.221 598.888 540.352C601.057 527.788 600.711 513.167 599.2 500.506C590.7 497.641 582.008 495.049 573.2 492.764Z" fill="#314B79"/>
<g opacity="0.5">
<path d="M573.2 492.764C571.41 505.4 566.505 517.591 559.012 527.92C561.285 527.474 563.539 526.927 565.759 526.252C566.492 526.028 567.255 525.801 568.009 525.79C573.452 516.02 577.632 505.549 580.415 494.716C578.018 494.045 575.614 493.39 573.2 492.764Z" fill="#C19ABD"/>
</g>
<path d="M564.195 503.707C568.771 500.954 573.111 497.833 577.447 494.715C577.726 494.514 578.003 494.315 578.281 494.114C544.856 484.922 509.465 480.279 475.458 484.253C483.119 497.053 492.781 508.964 505.15 517.243C525.596 518.973 546.599 514.293 564.195 503.707Z" fill="#C19ABD"/>
<g opacity="0.5">
<path d="M540.571 517.436C545.373 516.282 550.068 514.602 554.969 513.983C570.474 512.026 585.182 520.786 600.357 524.525C600.581 516.39 600.107 508.097 599.201 500.506C559.897 487.251 516.658 479.439 475.46 484.253C481.837 494.909 489.609 504.944 499.168 512.787C511.624 519.375 526.771 520.75 540.571 517.436Z" fill="#314B79"/>
</g>
<path d="M444.954 387.034C440.899 410.715 442.364 435.692 451.742 457.812C461.121 479.933 478.863 498.914 501.357 507.362C513.038 511.749 525.944 513.245 538.134 510.588C543.633 509.39 549.046 507.303 553.367 503.7C575.263 515.655 602.004 518.15 625.925 511.067C632.906 518.644 642.975 523.786 653.141 525.458C653.975 525.594 654.891 525.693 655.607 525.245C656.686 524.57 656.764 523.057 656.719 521.785C656.218 507.324 655.718 492.865 655.218 478.404C655.098 474.929 654.664 470.884 651.712 469.049C650.184 468.099 648.297 467.985 646.498 467.942C632.301 467.6 617.236 469.867 604.56 463.461C589.147 455.671 582.365 437.838 573.119 423.251C561.332 404.655 543.732 389.802 523.419 381.309C503.105 372.817 480.171 370.722 458.655 375.395C452.818 376.663 445.962 381.145 444.954 387.034Z" fill="#F7F4EF"/>
<path d="M581.188 437.09C579.831 434.719 578.493 432.334 577.139 429.974C559.762 450.192 550.707 477.487 552.864 504.083C553.03 503.951 553.204 503.833 553.367 503.697C554.734 504.443 556.12 505.153 557.522 505.825C557.243 503.246 557.31 500.592 557.487 498.007C558.997 475.933 567.489 454.449 581.188 437.09Z" fill="#314B79"/>
<path d="M534.273 395.956C536.416 394.166 538.485 392.294 540.496 390.364C535.086 386.847 529.375 383.797 523.42 381.308C503.106 372.816 480.172 370.722 458.657 375.393C452.818 376.662 445.962 381.143 444.954 387.033C443.435 395.899 442.692 404.949 442.846 413.962C455.79 419.32 470.312 420.938 484.234 418.993C502.658 416.422 519.993 407.88 534.273 395.956Z" fill="#314B79"/>
<path d="M530.767 462.647C547.052 452.045 560.903 438.159 572.748 422.685C571.119 420.153 569.378 417.695 567.54 415.309C554.229 430.543 539.663 444.686 522.547 455.344C503.793 467.022 481.533 474.179 459.669 472.715C461.853 476.091 464.248 479.326 466.833 482.398C489.323 482.584 511.811 474.989 530.767 462.647Z" fill="#314B79"/>
<g opacity="0.5">
<path d="M515.844 415.436C518.047 416.826 519.644 418.972 521.234 421.038C526.746 428.19 532.851 434.976 540.129 440.32C551.36 448.565 564.991 453.056 578.754 455.229C584.296 456.104 589.877 456.613 595.476 456.918C586.037 447.899 580.315 434.603 573.121 423.252C561.334 404.655 543.734 389.802 523.421 381.31C503.107 372.817 480.173 370.723 458.657 375.395C452.819 376.663 445.962 381.145 444.954 387.034C443.796 393.793 443.107 400.661 442.905 407.535C460.5 416.205 481.425 416.603 501.052 414.094C506.068 413.452 511.565 412.737 515.844 415.436Z" fill="#314B79"/>
</g>
<path d="M651.713 469.047C650.186 468.098 648.298 467.984 646.5 467.941C635.87 467.684 624.756 468.889 614.522 466.823C614.179 478.397 612.416 489.929 609.258 501.07C607.916 505.803 606.252 510.554 603.873 514.837C611.339 514.431 618.761 513.187 625.926 511.066C632.907 518.643 642.977 523.785 653.142 525.456C653.976 525.593 654.893 525.692 655.609 525.244C656.687 524.568 656.765 523.055 656.72 521.784C656.22 507.323 655.72 492.863 655.22 478.402C655.1 474.928 654.667 470.882 651.713 469.047Z" fill="#314B79"/>
<g opacity="0.5">
<path d="M614.521 466.823C614.178 478.398 612.415 489.929 609.257 501.07C607.915 505.803 606.251 510.554 603.872 514.837C607.068 514.663 610.253 514.303 613.416 513.819C618.88 499.117 621.902 483.51 622.313 467.831C619.675 467.648 617.07 467.338 614.521 466.823Z" fill="#C19ABD"/>
</g>
<path d="M644.387 426.678C641.57 423.229 636.966 421.926 632.685 420.698C610.226 414.253 588.628 404.811 568.647 392.701C562.095 388.731 555.645 384.44 548.424 381.88C541.203 379.32 532.947 378.655 526.035 381.956C522.09 386.745 520.407 393.095 521.443 399.212C522.478 405.329 525.658 410.937 529.73 415.616C539.556 426.901 554.024 432.822 568.025 438.102C580.4 442.769 593.201 447.298 606.423 447.036C609.799 446.968 613.247 446.596 616.502 447.497C620.372 448.57 623.597 451.351 627.466 452.425C631.336 453.5 636.639 451.639 636.725 447.623C636.773 445.385 635.169 443.494 633.659 441.84C636.287 442.707 639.53 443.041 642.267 442.628C645.003 442.215 647.693 440.073 647.736 437.305C647.741 436.977 647.717 436.622 647.901 436.351C648.231 435.866 648.953 435.964 649.538 435.924C651.186 435.81 652.392 434.05 652.275 432.403C652.156 430.755 650.997 429.325 649.592 428.455C648.189 427.584 645.992 427.072 644.387 426.678Z" fill="#F7F4EF"/>
<path d="M649.591 428.455C648.188 427.584 645.991 427.072 644.387 426.678C641.569 423.229 636.965 421.926 632.685 420.698C623.361 418.023 614.199 414.801 605.227 411.116C602.665 421.855 598.49 432.21 592.857 441.705C592.132 442.926 591.363 444.144 590.506 445.284C595.742 446.449 601.047 447.142 606.423 447.036C609.799 446.969 613.247 446.596 616.501 447.497C620.371 448.57 623.596 451.351 627.465 452.425C631.335 453.5 636.639 451.639 636.724 447.623C636.772 445.385 635.168 443.494 633.658 441.84C636.287 442.707 639.529 443.041 642.266 442.628C645.002 442.215 647.694 440.073 647.736 437.305C647.74 436.977 647.716 436.622 647.902 436.351C648.233 435.866 648.953 435.964 649.539 435.924C651.186 435.81 652.392 434.05 652.275 432.403C652.156 430.755 650.995 429.326 649.591 428.455Z" fill="#314B79"/>
<g opacity="0.5">
<path d="M612.924 414.133C610.345 413.162 607.775 412.163 605.225 411.116C602.663 421.855 598.488 432.21 592.855 441.705C592.13 442.926 591.361 444.144 590.504 445.284C592.79 445.791 595.09 446.19 597.401 446.491C605.002 437.113 610.363 425.928 612.924 414.133Z" fill="#314B79"/>
</g>
<g opacity="0.5">
<path d="M540.674 379.999C535.663 379.34 530.561 379.794 526.035 381.956C522.09 386.745 520.407 393.095 521.443 399.212C521.629 400.306 521.903 401.376 522.219 402.434C529.544 396.032 535.804 388.424 540.674 379.999Z" fill="#314B79"/>
</g>
<g opacity="0.5">
<path d="M634.51 441.821C634.053 441.312 633.695 440.753 633.195 440.284C632.705 439.824 632.212 439.367 631.709 438.924C630.665 438.003 629.542 437.173 628.426 436.342C627.341 435.535 626.252 434.724 625.125 433.98C624.563 433.609 623.998 433.23 623.42 432.885C622.811 432.523 622.183 432.377 621.482 432.308C621.034 432.265 620.76 432.836 620.977 433.189C621.705 434.375 622.828 434.986 623.955 435.747C625.074 436.504 626.209 437.233 627.319 438.002C628.394 438.746 629.441 439.534 630.529 440.26C631.086 440.633 631.646 441.003 632.202 441.379C632.796 441.78 633.442 442.039 634.056 442.409C634.43 442.634 634.787 442.129 634.51 441.821Z" fill="#314B79"/>
</g>
<g opacity="0.5">
<path d="M648.606 436.634C646.687 435.581 644.843 434.5 642.841 433.604C640.982 432.773 639.129 431.925 637.262 431.118C635.39 430.309 633.51 429.515 631.633 428.714C629.998 428.016 628.004 426.711 626.171 427.047C625.865 427.102 625.714 427.519 625.877 427.769C626.914 429.356 629.354 429.918 631.015 430.631C632.888 431.437 634.756 432.255 636.636 433.047C638.458 433.814 640.296 434.551 642.125 435.301C644.152 436.132 646.206 436.721 648.29 437.381C648.732 437.524 649.013 436.857 648.606 436.634Z" fill="#314B79"/>
</g>
<g opacity="0.5">
<path d="M645.239 426.533C642.514 425.326 639.607 424.869 636.691 424.318C635.226 424.041 633.764 423.752 632.295 423.497C631.023 423.277 629.277 422.639 628.073 423.295C627.662 423.518 627.649 424.059 627.933 424.379C628.829 425.387 630.809 425.387 632.057 425.606C633.474 425.853 634.895 426.072 636.315 426.302C639.225 426.776 642.12 427.352 645.074 427.146C645.363 427.123 645.564 426.677 645.239 426.533Z" fill="#314B79"/>
</g>
<path d="M524.56 389.6C553.436 360.724 553.436 313.907 524.56 285.031C495.684 256.155 448.867 256.155 419.991 285.031C391.116 313.907 391.116 360.724 419.991 389.6C448.867 418.476 495.684 418.476 524.56 389.6Z" fill="#F7F4EF"/>
<path opacity="0.5" d="M466.851 408.131C504.22 408.131 534.514 377.838 534.514 340.468C534.514 303.099 504.22 272.805 466.851 272.805C429.481 272.805 399.188 303.099 399.188 340.468C399.188 377.838 429.481 408.131 466.851 408.131Z" fill="#F7F4EF"/>
<path d="M501.002 386.53C524.024 363.508 524.024 326.181 501.002 303.158C477.979 280.135 440.652 280.135 417.63 303.158C394.607 326.181 394.607 363.508 417.63 386.53C440.652 409.553 477.979 409.553 501.002 386.53Z" fill="#314B79"/>
<g opacity="0.5">
<path d="M510.299 315.231C501.933 300.827 488.399 291.304 473.408 287.612C481.612 292.562 488.727 299.583 493.88 308.455C510.235 336.608 500.668 372.69 472.515 389.044C458.765 397.031 443.129 398.82 428.817 395.297C446.653 406.058 469.651 407.02 488.933 395.82C517.087 379.466 526.653 343.384 510.299 315.231Z" fill="#A8C5DA"/>
</g>
<path d="M557.106 335.6C558.037 349.074 550.914 360.541 541.196 361.212C531.479 361.885 522.844 351.507 521.914 338.033C520.982 324.559 528.106 313.092 537.823 312.421C547.541 311.75 556.174 322.126 557.106 335.6Z" fill="#314B79"/>
<g opacity="0.5">
<path d="M557.106 335.6C556.186 322.299 547.758 312.035 538.191 312.421C531.181 316.465 526.634 326.383 527.413 337.652C528.192 348.922 534.061 358.119 541.561 361.161C551.09 360.228 558.026 348.902 557.106 335.6Z" fill="#F7F4EF"/>
</g>
<path d="M560.986 335.332C561.775 346.757 555.734 356.481 547.494 357.052C539.253 357.621 531.932 348.821 531.143 337.396C530.353 325.971 536.394 316.248 544.635 315.677C552.875 315.106 560.196 323.907 560.986 335.332Z" fill="#E3DAE8"/>
<path d="M560.986 335.332C561.775 346.757 555.734 356.481 547.494 357.052C539.253 357.621 531.932 348.821 531.143 337.396C530.353 325.971 536.394 316.248 544.635 315.677C552.875 315.106 560.196 323.907 560.986 335.332Z" fill="#E3DAE8"/>
<path d="M560.986 335.332C561.775 346.757 555.734 356.481 547.494 357.052C539.253 357.621 531.932 348.821 531.143 337.396C530.353 325.971 536.394 316.248 544.635 315.677C552.875 315.106 560.196 323.907 560.986 335.332Z" fill="#E3DAE8"/>
<path d="M560.986 335.332C561.775 346.757 555.734 356.481 547.494 357.052C539.253 357.621 531.932 348.821 531.143 337.396C530.353 325.971 536.394 316.248 544.635 315.677C552.875 315.106 560.196 323.907 560.986 335.332Z" fill="#E3DAE8"/>
<path d="M560.986 335.332C561.775 346.757 555.734 356.481 547.494 357.052C539.253 357.621 531.932 348.821 531.143 337.396C530.353 325.971 536.394 316.248 544.635 315.677C552.875 315.106 560.196 323.907 560.986 335.332Z" fill="#E3DAE8"/>
<path d="M560.986 335.332C561.775 346.757 555.734 356.481 547.494 357.052C539.253 357.621 531.932 348.821 531.143 337.396C530.353 325.971 536.394 316.248 544.635 315.677C552.875 315.106 560.196 323.907 560.986 335.332Z" fill="#E3DAE8"/>
<path d="M560.986 335.332C561.775 346.757 555.734 356.481 547.494 357.052C539.253 357.621 531.932 348.821 531.143 337.396C530.353 325.971 536.394 316.248 544.635 315.677C552.875 315.106 560.196 323.907 560.986 335.332Z" fill="#E3DAE8"/>
<path d="M560.986 335.332C561.775 346.757 555.734 356.481 547.494 357.052C539.253 357.621 531.932 348.821 531.143 337.396C530.353 325.971 536.394 316.248 544.635 315.677C552.875 315.106 560.196 323.907 560.986 335.332Z" fill="#E3DAE8"/>
<g opacity="0.5">
<path d="M551.897 351.339C543.656 351.908 536.335 343.109 535.546 331.684C535.206 326.756 536.141 322.151 537.969 318.454C533.401 322.222 530.588 329.385 531.143 337.396C531.932 348.821 539.253 357.622 547.494 357.052C552.18 356.728 556.151 353.437 558.562 348.564C556.617 350.168 554.36 351.168 551.897 351.339Z" fill="#F7F4EF"/>
</g>
<path d="M446.28 342.863C446.323 343.494 445.166 344.088 443.693 344.19C442.221 344.292 440.993 343.864 440.949 343.232C440.906 342.601 442.064 342.006 443.536 341.905C445.007 341.803 446.237 342.233 446.28 342.863Z" fill="white"/>
<path d="M420.248 335.338C420.502 339.018 419.344 342.096 417.662 342.213C415.98 342.33 414.409 339.441 414.156 335.759C413.902 332.079 415.059 329.001 416.741 328.884C418.423 328.769 419.993 331.657 420.248 335.338Z" fill="white"/>
<path d="M477.328 336.262C476.815 339.915 475.044 342.686 473.374 342.451C471.704 342.216 470.767 339.065 471.282 335.412C471.796 331.759 473.566 328.988 475.236 329.223C476.906 329.458 477.844 332.609 477.328 336.262Z" fill="white"/>
<path d="M425.845 349.985C426.004 352.287 422.68 354.393 418.422 354.686C414.164 354.981 410.583 353.353 410.422 351.051C410.264 348.749 413.587 346.643 417.845 346.35C422.104 346.055 425.685 347.683 425.845 349.985Z" fill="#F7F4EF"/>
<path d="M487.237 347.512C487.395 349.814 484.072 351.92 479.814 352.214C475.555 352.509 471.974 350.881 471.814 348.579C471.655 346.276 474.979 344.171 479.237 343.877C483.495 343.582 487.078 345.21 487.237 347.512Z" fill="#F7F4EF"/>
<path d="M448.298 352.664C450.36 350.77 452.149 349.899 454.922 349.497C455.279 352.832 450.669 355.022 448.298 352.664Z" fill="white"/>
</svg>
