<svg width="1440" height="357" viewBox="0 0 1440 357" fill="none" xmlns="http://www.w3.org/2000/svg">
<path d="M1258.91 291.791C1042.94 238.664 832.907 173.343 631.428 96.6431C623.828 93.7501 615.393 90.7465 606.974 92.0598C598.136 93.4408 592.188 99.0914 585.801 103.65C549.04 129.879 487.705 123.639 438.209 112.145C335.964 88.3965 240.466 50.0443 159.06 0.0363308C155.871 -1.92236 32.2819 75.9396 20.5027 82.9937C13.6512 87.0955 6.7824 90.9678 0 94.7397V356.163H1349.8C1350.18 350.549 1349.64 344.97 1347.53 339.541C1337.2 313.047 1295.43 300.775 1258.91 291.791Z" fill="#314B79"/>
<path d="M735.575 342.594C701.504 329.358 662.497 306.114 675.36 280.057C683.288 263.994 707.739 256.028 727.01 245.934C746.28 235.839 762.292 215.98 747.296 202.714C742.112 198.126 734.264 195.547 726.603 193.322C642.712 168.953 549.216 168.842 460.967 154.211C373.76 139.755 291.384 110.77 222.31 70.2357C194.737 54.0561 168.583 35.3645 155.113 11.8091C153.512 9.00831 152.147 6.3018 150.961 3.66699C122.765 18.9267 30.5967 76.9498 20.5052 82.9938C13.6536 87.0956 6.78484 90.9679 0.00244141 94.7398V356.163H771.35C759.36 351.717 747.429 347.198 735.575 342.594Z" fill="#96D1C7"/>
<path d="M1440 257.663C1432.01 258.044 1423.96 258.915 1416.15 259.782C1120.76 292.567 810.429 281.977 534.637 199.882C488.468 186.138 441.783 170.182 391.746 169.44C348.342 168.797 306.444 179.711 265.749 190.474C189.426 210.659 112.821 230.371 36.7546 251.035C25.0243 254.223 12.4848 257.36 0 260.876V356.163H1440V257.663Z" fill="#F7F4EF"/>
<path d="M1416.15 259.781C1120.76 292.567 810.429 281.976 534.638 199.882C489.854 186.55 444.571 171.179 396.225 169.59C394.909 172.257 355.438 175.156 357.12 178.08C390.77 236.554 556.31 218.94 633.888 251.09C652.669 258.874 673.505 270.233 671.881 285.65C669.727 306.106 632.56 312.684 603.769 313.815C572.25 315.053 540.735 316.29 509.216 317.528C486.101 318.436 461.897 319.577 442.184 328.21C427.346 334.709 416.909 344.73 409.954 356.159H1440V257.659C1432.01 258.046 1423.96 258.915 1416.15 259.781Z" fill="#C6C5E9"/>
<path d="M793.44 231.696V272.726L809.229 279.331L793.44 231.696Z" fill="#F7F4EF"/>
<path d="M457.203 163.183V204.213L472.991 210.818L457.203 163.183Z" fill="#F7F4EF"/>
<path d="M578.202 187V218.81L590.442 223.933L578.202 187Z" fill="#F7F4EF"/>
<path d="M506.234 297.798V342.774L523.54 350.016L506.234 297.798Z" fill="#F7F4EF"/>
<path d="M532.8 289.981V321.791L545.04 326.914L532.8 289.981Z" fill="#F7F4EF"/>
<path d="M224.305 173.888V205.696L236.545 210.818L224.305 173.888Z" fill="#314B79"/>
<path d="M328.826 155.211V187.021L341.066 192.143L328.826 155.211Z" fill="#314B79"/>
<path d="M277.752 156.059V187.869L289.992 192.991L277.752 156.059Z" fill="#314B79"/>
<path d="M831.801 271.515V303.325L844.041 308.447L831.801 271.515Z" fill="#F7F4EF"/>
<path d="M966.17 297.798V329.608L978.41 334.73L966.17 297.798Z" fill="#F7F4EF"/>
<path d="M613.028 199.865V231.675L625.268 236.797L613.028 199.865Z" fill="#F7F4EF"/>
<path d="M1161.39 253.051V284.859L1173.63 289.981L1161.39 253.051Z" fill="#F7F4EF"/>
<path d="M1288.97 356.163L1253.19 156.059L1227.28 343.827L1187.33 266.204L1171 343.827L1152.17 307.444L1143.73 337.598L1115.42 210.331L1085.23 337.598L1056.89 258.8L1023.29 356.163H1288.97Z" fill="#314B79"/>
<path d="M1370.88 356.163L1334.26 156.059L1307.74 343.827L1266.85 266.204L1250.14 343.827L1230.86 307.444L1222.21 337.598L1193.24 210.331L1162.33 337.598L1133.33 258.8L1098.93 356.163H1370.88Z" fill="#96D1C7"/>
<path d="M1440 356.163V215.029L1422.97 179.916L1399.6 345.298L1363.59 276.928L1348.87 345.298L1331.89 313.252L1324.28 339.811L1298.76 227.717L1271.53 339.811L1245.99 270.407L1215.69 356.163H1440Z" fill="#A8C5DA"/>
<path d="M151.033 356.163L186.808 156.059L212.719 343.827L252.665 266.204L268.995 343.827L287.824 307.444L296.271 337.598L324.579 210.331L354.773 337.598L383.112 258.8L416.713 356.163H151.033Z" fill="#314B79"/>
<path d="M69.1201 356.163L105.739 156.059L132.261 343.827L173.149 266.204L189.864 343.827L209.137 307.444L217.783 337.598L246.759 210.331L277.667 337.598L306.671 258.8L341.067 356.163H69.1201Z" fill="#96D1C7"/>
<path d="M0 356.163V215.029L17.0323 179.916L40.3949 345.298L76.4064 276.928L91.129 345.298L108.107 313.252L115.721 339.811L141.241 227.717L168.466 339.811L194.014 270.407L224.306 356.163H0Z" fill="#A8C5DA"/>
</svg>
